<?xml version="1.0" encoding="utf-8"?>
<!-- Generator: Adobe Illustrator 21.0.0, SVG Export Plug-In . SVG Version: 6.00 Build 0)  -->
<svg version="1.1" id="Capa_1" xmlns="http://www.w3.org/2000/svg" xmlns:xlink="http://www.w3.org/1999/xlink" x="0px" y="0px"
	 viewBox="0 0 80 80" style="enable-background:new 0 0 80 80;" xml:space="preserve">
<style type="text/css">
	.st0{fill:#FFFFFF;}
</style>
<path class="st0" d="M27.1,5c3,0.6,6.2,0.3,9.2,0.1c2.9-0.2,6.4-0.3,9.1-1.3C46,3.6,46,2.6,45.2,2.6c-3-0.1-6.3,0.7-9.3,1
	C33,3.9,30,3.8,27.1,4.2C26.7,4.3,26.7,4.9,27.1,5z"/>
<path class="st0" d="M38.8,45.2c1.8,0.6,3.9,0.6,5.8,0.8c1.4,0.1,3.6,0.7,4.7-0.3c0.1-0.1,0.1-0.4,0-0.5c-1.1-0.9-3-0.4-4.3-0.5
	c-2-0.1-4-0.3-6-0.2C38.5,44.5,38.5,45.1,38.8,45.2z"/>
<path class="st0" d="M38.9,45c1.3-3.3,1.5-7.1,2-10.6c0.6-3.4,1.1-6.9,1.7-10.3l3.3-20.7c0.2-1-1.3-1.2-1.4-0.2
	c-0.9,7.1-2,14.3-3.1,21.4c-0.5,3.5-1.1,6.9-1.6,10.4c-0.5,3.2-1.4,6.7-1.2,10C38.6,45.1,38.9,45.1,38.9,45z"/>
<path class="st0" d="M30.3,45.4c0.2-6.9-0.6-13.9-1-20.8c-0.2-3.5-0.4-6.9-0.6-10.4C28.4,11,28.5,7.6,28,4.5
	c-0.1-0.7-1.2-0.5-1.3,0.2c-0.1,3.4,0.4,7,0.7,10.4c0.2,3.5,0.5,6.9,0.7,10.4c0.5,6.6,0.6,13.4,1.6,20
	C29.8,45.8,30.3,45.7,30.3,45.4z"/>
<path class="st0" d="M30,45.1c-1.7-0.1-3.4,0-5.1,0.1c-1.3,0-2.8-0.3-4,0.3c-0.2,0.1-0.2,0.4,0,0.5c1.2,0.7,2.9,0.3,4.3,0.2
	c1.6-0.1,3.3-0.2,4.9-0.5C30.6,45.7,30.4,45.1,30,45.1z"/>
<path class="st0" d="M20.8,45.8c0.7,2.6,2,5,3.1,7.5c1.3,2.8,2.5,5.5,3.8,8.3c1.2,2.7,2.4,5.3,3.5,8l1.8,4.2
	c0.5,1.2,0.9,2.5,1.8,3.3c0.3,0.2,0.7,0.1,0.7-0.3c0-2.3-1.7-4.9-2.6-7c-1.2-2.8-2.4-5.5-3.7-8.3c-1.2-2.7-2.4-5.3-3.6-7.9
	c-1.3-2.7-2.4-5.7-4.3-8C21.2,45.3,20.7,45.4,20.8,45.8z"/>
<path class="st0" d="M35.6,77.3c2.5-5.2,4.6-10.7,7-16.1c2.3-5.1,5.1-10.2,6.8-15.5c0.2-0.8-0.9-1.2-1.3-0.5
	C45.3,50.3,43.3,56,41,61.3c-2.2,5.1-4.7,10.3-6.2,15.7C34.7,77.4,35.4,77.7,35.6,77.3z"/>
<path class="st0" d="M35.3,77.3c2.3-0.1,4.6-0.7,6.8-1.4c1.9-0.6,4.6-0.7,6.2-2c0.2-0.2,0.1-0.5-0.1-0.5c-1.9-0.5-4.3,0.7-6.1,1.3
	c-2.2,0.8-4.5,1.3-6.8,2C34.9,76.8,35,77.3,35.3,77.3z"/>
<path class="st0" d="M47.7,45.6c1.6,0.6,3.5,0.7,5.2,1s3.4,0.5,5.1,0.4c0.6,0,0.8-1,0.2-1.1c-1.8-0.3-3.5-0.3-5.3-0.5
	c-1.7-0.2-3.5-0.6-5.2-0.3C47.4,45.1,47.5,45.5,47.7,45.6z"/>
<path class="st0" d="M45,3.4c1.5,0.8,3.1,1.4,4.6,2.1c0.9,0.5,2,1.3,3,1.5c0.6,0.1,1.2-0.6,0.6-1.1C52.4,5.1,51,4.6,50,4.1
	c-1.5-0.7-3.1-1.5-4.8-1.5C44.8,2.6,44.6,3.2,45,3.4z"/>
<path class="st0" d="M47.9,74c2.6-4,4.3-8.7,6-13.1c1.9-4.7,3.8-9.4,5.2-14.2c0.3-0.9-1.1-1.2-1.4-0.4c-1.8,4.5-3.2,9.2-4.9,13.8
	s-3.9,9-5.4,13.6C47.3,74.1,47.8,74.3,47.9,74z"/>
<path class="st0" d="M47.7,45.3c1.5-6.4,2.2-13.1,3.2-19.6c0.5-3.3,1-6.5,1.5-9.8c0.5-3,1.5-6.4,1.2-9.5c-0.1-0.7-1-0.8-1.2-0.2
	c-1.2,3-1.2,6.8-1.7,10.1s-1,6.5-1.4,9.8c-0.9,6.3-2.1,12.7-2.3,19.1C47,45.6,47.6,45.7,47.7,45.3z"/>
<path class="st0" d="M36,75.4c4.3-0.3,8.5-1.9,12.6-3.1c0.3-0.1,0.1-0.4-0.1-0.4c-4.2,0.8-8.4,2.3-12.5,3.3
	C35.9,75.3,35.9,75.4,36,75.4z"/>
<path class="st0" d="M36.8,73.3c4.3-0.4,8.4-1.9,12.6-2.8c0.3-0.1,0.2-0.5-0.1-0.4c-4.2,0.6-8.4,2.1-12.5,3.1
	C36.7,73.1,36.7,73.3,36.8,73.3z"/>
<path class="st0" d="M37.7,71.5c4.2-0.3,8.1-2.1,12.3-2.6c0.3,0,0.3-0.5-0.1-0.4c-4.1,0.6-8.3,1.6-12.2,2.8
	C37.6,71.3,37.6,71.5,37.7,71.5z"/>
<path class="st0" d="M38.4,68.8c4.2,0.2,8.2-1,12.3-1.8c0.3-0.1,0.2-0.5-0.1-0.4c-2,0.4-4,0.8-6.1,1.2c-2,0.4-4.1,0.5-6.1,0.7
	C38.3,68.6,38.3,68.8,38.4,68.8z"/>
<path class="st0" d="M39.7,66.8c1.9-0.2,3.8-0.6,5.8-0.7s3.9-0.2,5.9-0.4c0.3,0,0.3-0.5,0-0.4C47.5,65.7,43.4,65.4,39.7,66.8
	C39.5,66.6,39.5,66.8,39.7,66.8z"/>
<path class="st0" d="M40.6,64.4c3.9,0.2,7.9-0.2,11.8-0.6c0.3,0,0.3-0.4,0-0.4c-3.9,0.1-7.9,0.3-11.8,0.6
	C40.4,64,40.4,64.4,40.6,64.4z"/>
<path class="st0" d="M41.4,62.4c3.8,0,7.6-0.3,11.5-0.3c0.3,0,0.3-0.4,0-0.4c-3.8-0.1-7.7-0.1-11.5,0.4
	C41.3,62.2,41.3,62.4,41.4,62.4z"/>
<path class="st0" d="M42.5,60.1c3.7,0.4,7.6-0.1,11.4-0.1c0.3,0,0.3-0.5,0-0.5c-3.7,0-7.6,0-11.4,0.4C42.3,59.9,42.3,60.1,42.5,60.1
	z"/>
<path class="st0" d="M43.3,58c3.6,0.5,7.5,0.1,11.1,0.1c0.3,0,0.3-0.5,0-0.5c-3.6,0-7.6-0.5-11.1,0.2C43.2,57.8,43.2,57.9,43.3,58z"
	/>
<path class="st0" d="M44.3,55.7c3.5,0.4,7.3,0.4,10.7,0.3c0.3,0,0.3-0.5,0-0.5c-3.5-0.2-7.3-0.4-10.7-0.1
	C44.1,55.4,44.1,55.7,44.3,55.7z"/>
<path class="st0" d="M45.3,53.2c3.5,0.5,7.5,0.7,11,0.5c0.2,0,0.2-0.3,0-0.3C52.8,53.1,48.8,52.7,45.3,53.2
	C45.2,53,45.2,53.1,45.3,53.2z"/>
<path class="st0" d="M46.1,51.3c1.8,0.2,3.6,0,5.4,0.1s3.6,0.3,5.4,0.2c0.1,0,0.1-0.1,0-0.2c-3.3-0.7-7.5-0.8-10.8-0.3
	C46,51.1,46,51.3,46.1,51.3z"/>
<path class="st0" d="M47.3,49.4c3.4,0.2,6.9,0.1,10.3,0c0.2,0,0.2-0.3,0-0.3c-3.4-0.3-6.9-0.3-10.3,0C47.1,49.2,47.1,49.4,47.3,49.4
	z"/>
<path class="st0" d="M48,47.2c3.4,0.4,6.8,0.4,10.2,0.5c0.3,0,0.3-0.4,0-0.4c-3.4-0.2-6.8-0.5-10.2-0.3C47.9,47,47.9,47.2,48,47.2z"
	/>
<path class="st0" d="M39,43.9c2.8,0.4,5.7,0.5,8.5,0.6c0.3,0,0.3-0.4,0-0.4c-2.8-0.2-5.6-0.5-8.4-0.5C38.9,43.6,38.9,43.9,39,43.9z"
	/>
<path class="st0" d="M39.3,42.4c2.7,0.5,5.6,0.5,8.4,0.7c0.3,0,0.3-0.4,0-0.5c-2.7-0.2-5.6-0.8-8.4-0.5
	C39.2,42.2,39.2,42.3,39.3,42.4z"/>
<path class="st0" d="M39.6,40.5c2.6,0.5,5.8,1,8.4,0.6c0.2,0,0.2-0.3,0-0.3c-1.3-0.2-2.7-0.1-4.1-0.3c-1.4-0.1-2.9-0.3-4.3-0.2
	C39.6,40.3,39.5,40.5,39.6,40.5z"/>
<path class="st0" d="M39.7,38.8c2.8,0.6,5.7,0.7,8.6,0.6c0.3,0,0.3-0.4,0-0.5c-2.9-0.1-5.7-0.3-8.5-0.4
	C39.6,38.6,39.6,38.8,39.7,38.8z"/>
<path class="st0" d="M40.1,37.1c2.6,0.6,5.6,0.6,8.3,0.7c0.3,0,0.3-0.5,0-0.5C45.7,37.2,42.7,36.5,40.1,37.1L40.1,37.1z"/>
<path class="st0" d="M40.2,35.3c1.3,0.3,2.8,0.2,4.1,0.3c1.5,0.1,2.9,0.2,4.4,0.2c0.2,0,0.2-0.4,0-0.4
	C46.1,35.4,42.9,34.6,40.2,35.3L40.2,35.3z"/>
<path class="st0" d="M40.9,33.5c2.6,0.4,5.4,0.4,8.1,0.5c0.2,0,0.2-0.3,0-0.4c-2.6-0.3-5.4-0.7-8.1-0.4
	C40.8,33.4,40.8,33.5,40.9,33.5z"/>
<path class="st0" d="M45.5,4.7c2.5,0.7,4.7,2.1,7.2,2.7c0.2,0,0.3-0.3,0.1-0.4c-2.6-0.6-4.6-2.2-7.2-2.7C45.4,4.3,45.3,4.6,45.5,4.7
	z"/>
<path class="st0" d="M45.1,6.1C46.4,6.6,47.7,7,49,7.6c1.2,0.6,2.4,0.8,3.7,1c0.3,0,0.4-0.4,0.1-0.5c-1.5-0.2-2.8-0.6-4.1-1.3
	c-1.1-0.6-2.3-1-3.6-1C45,5.8,45,6,45.1,6.1z"/>
<path class="st0" d="M44.6,7.9C46,8.4,47.5,8.5,48.9,9c1.2,0.4,2.4,0.7,3.7,0.9c0.3,0,0.3-0.4,0.1-0.5c-2.6-0.5-5.4-1.9-8-1.7
	C44.6,7.7,44.5,7.9,44.6,7.9z"/>
<path class="st0" d="M44.5,9.6c1.3,0.4,2.7,0.6,4.1,1c1.3,0.4,2.6,0.8,3.9,0.7c0.1,0,0.1-0.2,0-0.2c-1.3-0.4-2.7-0.6-4.1-1
	c-1.3-0.4-2.6-0.7-3.9-0.7C44.4,9.4,44.3,9.5,44.5,9.6z"/>
<path class="st0" d="M44.2,11c2.4,0.8,5.3,1.4,7.8,1.7c0.3,0,0.3-0.4,0.1-0.4c-1.3-0.3-2.7-0.5-4-0.8s-2.5-0.6-3.8-0.7
	C44.1,10.6,44.1,10.9,44.2,11z"/>
<path class="st0" d="M44,12.6c1.3,0.3,2.6,0.4,3.9,0.7c1.3,0.4,2.6,0.7,3.9,1c0.3,0.1,0.4-0.3,0.1-0.4c-2.6-0.6-5.1-1.8-7.8-1.6
	C43.9,12.3,43.8,12.5,44,12.6z"/>
<path class="st0" d="M41,31.6c1.3,0.2,2.6,0.1,3.9,0.2c1.4,0.1,2.7,0.4,4.1,0.6c0.3,0,0.3-0.4,0-0.5c-2.6-0.3-5.3-0.9-8-0.5
	C40.9,31.4,40.9,31.6,41,31.6z"/>
<path class="st0" d="M41.3,29.7c2.6,0.5,5.4,0.8,8.1,0.9c0.3,0,0.3-0.4,0-0.4c-2.7-0.3-5.4-0.6-8-0.6C41.2,29.6,41.2,29.7,41.3,29.7
	z"/>
<path class="st0" d="M41.5,28.1c2.5,0.5,5.4,0.9,8,1c0.2,0,0.2-0.3,0-0.4c-2.5-0.5-5.5-1.1-8-0.9C41.5,27.8,41.4,28,41.5,28.1z"/>
<path class="st0" d="M41.8,26.2c1.4,0.3,2.8,0.3,4.2,0.5c1.3,0.2,2.6,0.6,4,0.6c0.2,0,0.2-0.2,0-0.3c-2.3-0.9-5.6-1.2-8.1-1.1
	C41.7,25.8,41.6,26.1,41.8,26.2z"/>
<path class="st0" d="M42.2,24.3c0,0.1,0,0.1,0.1,0.1c0.7,0.3,1.6,0.2,2.3,0.3c1.9,0.2,3.7,0.4,5.6,0.6c0.3,0,0.3-0.4,0-0.5
	c-1.8-0.2-3.6-0.4-5.4-0.5c-0.8,0-1.8-0.3-2.5-0.1C42.2,24.2,42.2,24.2,42.2,24.3z"/>
<path class="st0" d="M42.5,22.4c1,0.2,2.1,0.3,3.1,0.4c1.6,0.2,3.1,0.5,4.7,0.7c0.2,0,0.2-0.3,0-0.4c-2.4-0.8-5.3-1-7.8-1
	C42.4,22.2,42.3,22.4,42.5,22.4z"/>
<path class="st0" d="M42.9,20.2c2.4,0.8,5.3,1,7.7,1.2c0.3,0,0.3-0.4,0-0.5c-2.4-0.3-5.3-1.2-7.7-0.9C42.9,20,42.9,20.2,42.9,20.2z"
	/>
<path class="st0" d="M43.1,18.2c0.8,0.3,1.8,0.3,2.6,0.4c1.8,0.2,3.6,0.3,5.3,0.6c0.3,0,0.5-0.4,0.1-0.5c-2.6-0.4-5.4-0.9-8-0.8
	C43,17.9,42.9,18.1,43.1,18.2z"/>
<path class="st0" d="M43.5,16.3c2.5,0.6,5.3,1,7.8,1.1c0.3,0,0.3-0.4,0-0.4c-2.5-0.3-5.2-1.1-7.8-1C43.4,16,43.4,16.2,43.5,16.3z"/>
<path class="st0" d="M43.8,14.3c2.4,0.8,5.3,1.3,7.8,1.4c0.2,0,0.3-0.3,0.1-0.4c-2.4-0.6-5.3-1.2-7.8-1.2
	C43.7,14.1,43.7,14.3,43.8,14.3z"/>
</svg>
