<?xml version="1.0" encoding="UTF-8" standalone="no"?>
<!-- Generator: Adobe Illustrator 20.0.0, SVG Export Plug-In . SVG Version: 6.00 Build 0)  -->
<svg id="Capa_1" style="enable-background:new 0 0 80 80" xmlns="http://www.w3.org/2000/svg" xml:space="preserve" viewBox="0 0 80 80" version="1.1" y="0px" x="0px" xmlns:xlink="http://www.w3.org/1999/xlink">
<style type="text/css">
	.st0{fill:#0F3756;}
</style>
		<path class="st0" d="m27.1 5c3 0.6 6.2 0.3 9.2 0.1 2.9-0.2 6.4-0.3 9.1-1.3 0.6-0.2 0.6-1.2-0.2-1.2-3-0.1-6.3 0.7-9.3 1-2.9 0.3-5.9 0.2-8.8 0.6-0.4 0.1-0.4 0.7 0 0.8z"/>
		<path class="st0" d="m38.8 45.2c1.8 0.6 3.9 0.6 5.8 0.8 1.4 0.1 3.6 0.7 4.7-0.3 0.1-0.1 0.1-0.4 0-0.5-1.1-0.9-3-0.4-4.3-0.5-2-0.1-4-0.3-6-0.2-0.5 0-0.5 0.6-0.2 0.7z"/>
		<path class="st0" d="m38.9 45c1.3-3.3 1.5-7.1 2-10.6 0.6-3.4 1.1-6.9 1.7-10.3l3.3-20.7c0.2-1-1.3-1.2-1.4-0.2-0.9 7.1-2 14.3-3.1 21.4-0.5 3.5-1.1 6.9-1.6 10.4-0.5 3.2-1.4 6.7-1.2 10 0 0.1 0.3 0.1 0.3 0z"/>
		<path class="st0" d="m30.3 45.4c0.2-6.9-0.6-13.9-1-20.8-0.2-3.5-0.4-6.9-0.6-10.4-0.3-3.2-0.2-6.6-0.7-9.7-0.1-0.7-1.2-0.5-1.3 0.2-0.1 3.4 0.4 7 0.7 10.4 0.2 3.5 0.5 6.9 0.7 10.4 0.5 6.6 0.6 13.4 1.6 20 0.1 0.3 0.6 0.2 0.6-0.1z"/>
		<path class="st0" d="m30 45.1c-1.7-0.1-3.4 0-5.1 0.1-1.3 0-2.8-0.3-4 0.3-0.2 0.1-0.2 0.4 0 0.5 1.2 0.7 2.9 0.3 4.3 0.2 1.6-0.1 3.3-0.2 4.9-0.5 0.5 0 0.3-0.6-0.1-0.6z"/>
		<path class="st0" d="m20.8 45.8c0.7 2.6 2 5 3.1 7.5 1.3 2.8 2.5 5.5 3.8 8.3 1.2 2.7 2.4 5.3 3.5 8l1.8 4.2c0.5 1.2 0.9 2.5 1.8 3.3 0.3 0.2 0.7 0.1 0.7-0.3 0-2.3-1.7-4.9-2.6-7-1.2-2.8-2.4-5.5-3.7-8.3-1.2-2.7-2.4-5.3-3.6-7.9-1.3-2.7-2.4-5.7-4.3-8-0.1-0.3-0.6-0.2-0.5 0.2z"/>
		<path class="st0" d="m35.6 77.3c2.5-5.2 4.6-10.7 7-16.1 2.3-5.1 5.1-10.2 6.8-15.5 0.2-0.8-0.9-1.2-1.3-0.5-2.8 5.1-4.8 10.8-7.1 16.1-2.2 5.1-4.7 10.3-6.2 15.7-0.1 0.4 0.6 0.7 0.8 0.3z"/>
		<path class="st0" d="m35.3 77.3c2.3-0.1 4.6-0.7 6.8-1.4 1.9-0.6 4.6-0.7 6.2-2 0.2-0.2 0.1-0.5-0.1-0.5-1.9-0.5-4.3 0.7-6.1 1.3-2.2 0.8-4.5 1.3-6.8 2-0.4 0.1-0.3 0.6 0 0.6z"/>
		<path class="st0" d="m47.7 45.6c1.6 0.6 3.5 0.7 5.2 1s3.4 0.5 5.1 0.4c0.6 0 0.8-1 0.2-1.1-1.8-0.3-3.5-0.3-5.3-0.5-1.7-0.2-3.5-0.6-5.2-0.3-0.3 0-0.2 0.4 0 0.5z"/>
		<path class="st0" d="m45 3.4c1.5 0.8 3.1 1.4 4.6 2.1 0.9 0.5 2 1.3 3 1.5 0.6 0.1 1.2-0.6 0.6-1.1-0.8-0.8-2.2-1.3-3.2-1.8-1.5-0.7-3.1-1.5-4.8-1.5-0.4 0-0.6 0.6-0.2 0.8z"/>
		<path class="st0" d="m47.9 74c2.6-4 4.3-8.7 6-13.1 1.9-4.7 3.8-9.4 5.2-14.2 0.3-0.9-1.1-1.2-1.4-0.4-1.8 4.5-3.2 9.2-4.9 13.8s-3.9 9-5.4 13.6c-0.1 0.4 0.4 0.6 0.5 0.3z"/>
		<path class="st0" d="m47.7 45.3c1.5-6.4 2.2-13.1 3.2-19.6 0.5-3.3 1-6.5 1.5-9.8 0.5-3 1.5-6.4 1.2-9.5-0.1-0.7-1-0.8-1.2-0.2-1.2 3-1.2 6.8-1.7 10.1s-1 6.5-1.4 9.8c-0.9 6.3-2.1 12.7-2.3 19.1 0 0.4 0.6 0.5 0.7 0.1z"/>
		<path class="st0" d="m36 75.4c4.3-0.3 8.5-1.9 12.6-3.1 0.3-0.1 0.1-0.4-0.1-0.4-4.2 0.8-8.4 2.3-12.5 3.3-0.1 0.1-0.1 0.2 0 0.2z"/>
		<path class="st0" d="m36.8 73.3c4.3-0.4 8.4-1.9 12.6-2.8 0.3-0.1 0.2-0.5-0.1-0.4-4.2 0.6-8.4 2.1-12.5 3.1-0.1-0.1-0.1 0.1 0 0.1z"/>
		<path class="st0" d="m37.7 71.5c4.2-0.3 8.1-2.1 12.3-2.6 0.3 0 0.3-0.5-0.1-0.4-4.1 0.6-8.3 1.6-12.2 2.8-0.1 0-0.1 0.2 0 0.2z"/>
		<path class="st0" d="m38.4 68.8c4.2 0.2 8.2-1 12.3-1.8 0.3-0.1 0.2-0.5-0.1-0.4-2 0.4-4 0.8-6.1 1.2-2 0.4-4.1 0.5-6.1 0.7-0.1 0.1-0.1 0.3 0 0.3z"/>
		<path class="st0" d="m39.7 66.8c1.9-0.2 3.8-0.6 5.8-0.7s3.9-0.2 5.9-0.4c0.3 0 0.3-0.5 0-0.4-3.9 0.4-8 0.1-11.7 1.4-0.2-0.1-0.2 0.1 0 0.1z"/>
		<path class="st0" d="m40.6 64.4c3.9 0.2 7.9-0.2 11.8-0.6 0.3 0 0.3-0.4 0-0.4-3.9 0.1-7.9 0.3-11.8 0.6-0.2 0-0.2 0.4 0 0.4z"/>
		<path class="st0" d="m41.4 62.4c3.8 0 7.6-0.3 11.5-0.3 0.3 0 0.3-0.4 0-0.4-3.8-0.1-7.7-0.1-11.5 0.4-0.1 0.1-0.1 0.3 0 0.3z"/>
		<path class="st0" d="m42.5 60.1c3.7 0.4 7.6-0.1 11.4-0.1 0.3 0 0.3-0.5 0-0.5-3.7 0-7.6 0-11.4 0.4-0.2 0-0.2 0.2 0 0.2z"/>
		<path class="st0" d="m43.3 58c3.6 0.5 7.5 0.1 11.1 0.1 0.3 0 0.3-0.5 0-0.5-3.6 0-7.6-0.5-11.1 0.2-0.1 0-0.1 0.1 0 0.2z"/>
		<path class="st0" d="m44.3 55.7c3.5 0.4 7.3 0.4 10.7 0.3 0.3 0 0.3-0.5 0-0.5-3.5-0.2-7.3-0.4-10.7-0.1-0.2 0-0.2 0.3 0 0.3z"/>
		<path class="st0" d="m45.3 53.2c3.5 0.5 7.5 0.7 11 0.5 0.2 0 0.2-0.3 0-0.3-3.5-0.3-7.5-0.7-11-0.3-0.1-0.1-0.1 0 0 0.1z"/>
		<path class="st0" d="m46.1 51.3c1.8 0.2 3.6 0 5.4 0.1s3.6 0.3 5.4 0.2c0.1 0 0.1-0.1 0-0.2-3.3-0.7-7.5-0.8-10.8-0.3-0.1 0-0.1 0.2 0 0.2z"/>
		<path class="st0" d="m47.3 49.4c3.4 0.2 6.9 0.1 10.3 0 0.2 0 0.2-0.3 0-0.3-3.4-0.3-6.9-0.3-10.3 0-0.2 0.1-0.2 0.3 0 0.3z"/>
		<path class="st0" d="m48 47.2c3.4 0.4 6.8 0.4 10.2 0.5 0.3 0 0.3-0.4 0-0.4-3.4-0.2-6.8-0.5-10.2-0.3-0.1 0-0.1 0.2 0 0.2z"/>
		<path class="st0" d="m39 43.9c2.8 0.4 5.7 0.5 8.5 0.6 0.3 0 0.3-0.4 0-0.4-2.8-0.2-5.6-0.5-8.4-0.5-0.2 0-0.2 0.3-0.1 0.3z"/>
		<path class="st0" d="m39.3 42.4c2.7 0.5 5.6 0.5 8.4 0.7 0.3 0 0.3-0.4 0-0.5-2.7-0.2-5.6-0.8-8.4-0.5-0.1 0.1-0.1 0.2 0 0.3z"/>
		<path class="st0" d="m39.6 40.5c2.6 0.5 5.8 1 8.4 0.6 0.2 0 0.2-0.3 0-0.3-1.3-0.2-2.7-0.1-4.1-0.3-1.4-0.1-2.9-0.3-4.3-0.2 0 0-0.1 0.2 0 0.2z"/>
		<path class="st0" d="m39.7 38.8c2.8 0.6 5.7 0.7 8.6 0.6 0.3 0 0.3-0.4 0-0.5-2.9-0.1-5.7-0.3-8.5-0.4-0.2 0.1-0.2 0.3-0.1 0.3z"/>
		<path class="st0" d="m40.1 37.1c2.6 0.6 5.6 0.6 8.3 0.7 0.3 0 0.3-0.5 0-0.5-2.7-0.1-5.7-0.8-8.3-0.3v0.1z"/>
		<path class="st0" d="m40.2 35.3c1.3 0.3 2.8 0.2 4.1 0.3 1.5 0.1 2.9 0.2 4.4 0.2 0.2 0 0.2-0.4 0-0.4-2.6 0-5.8-0.8-8.5-0.1v0z"/>
		<path class="st0" d="m40.9 33.5c2.6 0.4 5.4 0.4 8.1 0.5 0.2 0 0.2-0.3 0-0.4-2.6-0.3-5.4-0.7-8.1-0.4-0.1 0.2-0.1 0.3 0 0.3z"/>
		<path class="st0" d="m45.5 4.7c2.5 0.7 4.7 2.1 7.2 2.7 0.2 0 0.3-0.3 0.1-0.4-2.6-0.6-4.6-2.2-7.2-2.7-0.2 0-0.3 0.3-0.1 0.4z"/>
		<path class="st0" d="m45.1 6.1c1.3 0.5 2.6 0.9 3.9 1.5 1.2 0.6 2.4 0.8 3.7 1 0.3 0 0.4-0.4 0.1-0.5-1.5-0.2-2.8-0.6-4.1-1.3-1.1-0.6-2.3-1-3.6-1-0.1 0-0.1 0.2 0 0.3z"/>
		<path class="st0" d="m44.6 7.9c1.4 0.5 2.9 0.6 4.3 1.1 1.2 0.4 2.4 0.7 3.7 0.9 0.3 0 0.3-0.4 0.1-0.5-2.6-0.5-5.4-1.9-8-1.7-0.1 0-0.2 0.2-0.1 0.2z"/>
		<path class="st0" d="m44.5 9.6c1.3 0.4 2.7 0.6 4.1 1 1.3 0.4 2.6 0.8 3.9 0.7 0.1 0 0.1-0.2 0-0.2-1.3-0.4-2.7-0.6-4.1-1-1.3-0.4-2.6-0.7-3.9-0.7-0.1 0-0.2 0.1 0 0.2z"/>
		<path class="st0" d="m44.2 11c2.4 0.8 5.3 1.4 7.8 1.7 0.3 0 0.3-0.4 0.1-0.4-1.3-0.3-2.7-0.5-4-0.8s-2.5-0.6-3.8-0.7c-0.2-0.2-0.2 0.1-0.1 0.2z"/>
		<path class="st0" d="m44 12.6c1.3 0.3 2.6 0.4 3.9 0.7 1.3 0.4 2.6 0.7 3.9 1 0.3 0.1 0.4-0.3 0.1-0.4-2.6-0.6-5.1-1.8-7.8-1.6-0.2 0-0.3 0.2-0.1 0.3z"/>
		<path class="st0" d="m41 31.6c1.3 0.2 2.6 0.1 3.9 0.2 1.4 0.1 2.7 0.4 4.1 0.6 0.3 0 0.3-0.4 0-0.5-2.6-0.3-5.3-0.9-8-0.5-0.1 0-0.1 0.2 0 0.2z"/>
		<path class="st0" d="m41.3 29.7c2.6 0.5 5.4 0.8 8.1 0.9 0.3 0 0.3-0.4 0-0.4-2.7-0.3-5.4-0.6-8-0.6-0.2 0-0.2 0.1-0.1 0.1z"/>
		<path class="st0" d="m41.5 28.1c2.5 0.5 5.4 0.9 8 1 0.2 0 0.2-0.3 0-0.4-2.5-0.5-5.5-1.1-8-0.9 0 0-0.1 0.2 0 0.3z"/>
		<path class="st0" d="m41.8 26.2c1.4 0.3 2.8 0.3 4.2 0.5 1.3 0.2 2.6 0.6 4 0.6 0.2 0 0.2-0.2 0-0.3-2.3-0.9-5.6-1.2-8.1-1.1-0.2-0.1-0.3 0.2-0.1 0.3z"/>
		<path class="st0" d="m42.2 24.3c0 0.1 0 0.1 0.1 0.1 0.7 0.3 1.6 0.2 2.3 0.3 1.9 0.2 3.7 0.4 5.6 0.6 0.3 0 0.3-0.4 0-0.5-1.8-0.2-3.6-0.4-5.4-0.5-0.8 0-1.8-0.3-2.5-0.1-0.1 0-0.1 0-0.1 0.1z"/>
		<path class="st0" d="m42.5 22.4c1 0.2 2.1 0.3 3.1 0.4 1.6 0.2 3.1 0.5 4.7 0.7 0.2 0 0.2-0.3 0-0.4-2.4-0.8-5.3-1-7.8-1-0.1 0.1-0.2 0.3 0 0.3z"/>
		<path class="st0" d="m42.9 20.2c2.4 0.8 5.3 1 7.7 1.2 0.3 0 0.3-0.4 0-0.5-2.4-0.3-5.3-1.2-7.7-0.9v0.2z"/>
		<path class="st0" d="m43.1 18.2c0.8 0.3 1.8 0.3 2.6 0.4 1.8 0.2 3.6 0.3 5.3 0.6 0.3 0 0.5-0.4 0.1-0.5-2.6-0.4-5.4-0.9-8-0.8-0.1 0-0.2 0.2 0 0.3z"/>
		<path class="st0" d="m43.5 16.3c2.5 0.6 5.3 1 7.8 1.1 0.3 0 0.3-0.4 0-0.4-2.5-0.3-5.2-1.1-7.8-1-0.1 0-0.1 0.2 0 0.3z"/>
		<path class="st0" d="m43.8 14.3c2.4 0.8 5.3 1.3 7.8 1.4 0.2 0 0.3-0.3 0.1-0.4-2.4-0.6-5.3-1.2-7.8-1.2-0.2 0-0.2 0.2-0.1 0.2z"/>
</svg>
