<?xml version="1.0" encoding="utf-8"?>
<!-- Generator: Adobe Illustrator 20.0.0, SVG Export Plug-In . SVG Version: 6.00 Build 0)  -->
<svg version="1.1" id="Capa_1" xmlns="http://www.w3.org/2000/svg" xmlns:xlink="http://www.w3.org/1999/xlink" x="0px" y="0px"
	 viewBox="0 0 348.4 32.6" style="enable-background:new 0 0 348.4 32.6;" xml:space="preserve">
<style type="text/css">
	.st0{fill:#30367C;}
	.st1{fill:none;stroke:#30367C;stroke-width:0.25;stroke-miterlimit:10;}
</style>
<polygon class="st0" points="30.3,32.6 0.3,32.6 0.3,18.7 2.3,18 4.6,19.5 4.7,22.9 6.9,20.4 6.9,23 8.5,20.6 8.6,22.9 10.5,20.4 
	10.6,22.6 11.3,22.6 11.3,27.6 13.3,27.6 13.3,14.1 15,13.6 15.3,13.6 15.3,8.6 16,8.6 15.9,12.3 16.5,12.5 17,14.6 17.8,14.6 
	19.2,12.9 21.3,13.9 21.3,27.6 23.3,27.6 23.3,16.7 24.3,18.6 24.9,18.6 25,15.8 26.2,15 27.4,16.4 29.1,15.3 30.3,16.5 "/>
<circle class="st1" cx="15.6" cy="8.3" r="2.5"/>
<circle class="st1" cx="15.7" cy="8.5" r="4.7"/>
<circle class="st1" cx="15.8" cy="8.4" r="6.6"/>
<circle class="st1" cx="15.7" cy="8.4" r="8.3"/>
<path class="st0" d="M41.6,32.6h-4.1l4.2-20h8.9c1.5,0,2.7,0.2,3.6,0.5c0.9,0.3,1.5,0.9,2.1,1.7c0.5,0.8,0.8,1.9,0.8,3
	c0,1.7-0.5,3.1-1.5,4.2c-1,1.1-2.6,1.8-4.6,2.1c0.5,0.5,1,1.1,1.5,1.9c0.9,1.6,1.9,3.8,3.1,6.6H51c-0.4-1.1-1.1-2.9-2.1-5.3
	c-0.6-1.3-1.2-2.2-1.8-2.6c-0.4-0.3-1.1-0.4-2.1-0.4h-1.7L41.6,32.6z M44,21.3h2.2c2.2,0,3.7-0.1,4.4-0.4s1.3-0.7,1.7-1.2
	s0.6-1.2,0.6-1.8c0-0.7-0.3-1.3-0.9-1.6c-0.4-0.2-1.2-0.3-2.4-0.3h-4.5L44,21.3z"/>
<path class="st0" d="M71,28.2h-7.9l-2.4,4.4h-4.2l11.3-20h4.6l3.3,20h-3.9L71,28.2z M70.5,24.8l-1.2-8.1l-4.8,8.1H70.5z"/>
<path class="st0" d="M79,26.1l3.9-0.2c0.1,1.2,0.3,2.1,0.6,2.5c0.6,0.7,1.7,1.1,3.3,1.1c1.3,0,2.3-0.2,2.9-0.7s0.9-1.1,0.9-1.8
	c0-0.6-0.2-1.1-0.7-1.5c-0.3-0.3-1.3-0.8-2.9-1.5c-1.6-0.7-2.7-1.2-3.4-1.7c-0.7-0.5-1.3-1-1.7-1.8s-0.6-1.6-0.6-2.5
	c0-1.7,0.6-3.1,1.8-4.2c1.2-1.1,3-1.7,5.3-1.7c2.4,0,4.2,0.6,5.5,1.7c1.3,1.1,2,2.6,2.1,4.4l-4,0.2c-0.1-1-0.4-1.7-1-2.2
	c-0.6-0.5-1.5-0.8-2.6-0.8c-1.1,0-2,0.2-2.4,0.6c-0.5,0.4-0.7,0.9-0.7,1.5c0,0.6,0.2,1,0.7,1.4c0.4,0.4,1.4,0.9,3,1.6
	c2.3,1,3.8,1.8,4.4,2.4c0.9,0.9,1.4,2.1,1.4,3.5c0,1.8-0.7,3.3-2.1,4.5c-1.4,1.3-3.3,1.9-5.8,1.9c-1.7,0-3.2-0.3-4.5-0.9
	c-1.3-0.6-2.2-1.4-2.7-2.4S78.9,27.5,79,26.1z"/>
<path class="st0" d="M106,32.6h-4.1l3.5-16.7h-5.9l0.7-3.3H116l-0.7,3.3h-5.8L106,32.6z"/>
<path class="st0" d="M118.8,32.6h-4.1l4.2-20h8.9c1.5,0,2.7,0.2,3.6,0.5c0.9,0.3,1.5,0.9,2.1,1.7c0.5,0.8,0.8,1.9,0.8,3
	c0,1.7-0.5,3.1-1.5,4.2c-1,1.1-2.6,1.8-4.6,2.1c0.5,0.5,1,1.1,1.5,1.9c0.9,1.6,1.9,3.8,3.1,6.6h-4.4c-0.4-1.1-1.1-2.9-2.1-5.3
	c-0.6-1.3-1.2-2.2-1.8-2.6c-0.4-0.3-1.1-0.4-2.1-0.4h-1.7L118.8,32.6z M121.2,21.3h2.2c2.2,0,3.7-0.1,4.4-0.4
	c0.7-0.3,1.3-0.7,1.7-1.2s0.6-1.2,0.6-1.8c0-0.7-0.3-1.3-0.9-1.6c-0.4-0.2-1.2-0.3-2.4-0.3h-4.5L121.2,21.3z"/>
<path class="st0" d="M135.1,32.6l4.2-20h14.9l-0.7,3.3h-10.7l-1,4.6h10.4l-0.7,3.3h-10.4l-1.3,5.4h11.7l-0.7,3.3H135.1z"/>
<path class="st0" d="M155.3,24.8c0-1.2,0.2-2.4,0.5-3.7c0.5-1.8,1.2-3.3,2.1-4.6s2.2-2.3,3.6-3.1s3.1-1.1,4.9-1.1
	c2.5,0,4.5,0.8,6,2.3s2.3,3.6,2.3,6.1c0,2.1-0.5,4.2-1.5,6.1s-2.3,3.5-4,4.6s-3.6,1.6-5.8,1.6c-1.9,0-3.4-0.4-4.7-1.3
	s-2.2-1.9-2.7-3.2S155.3,26,155.3,24.8z M159.4,24.7c0,1.4,0.4,2.5,1.3,3.5s1.9,1.4,3.3,1.4c1.1,0,2.2-0.4,3.2-1.1s1.9-1.8,2.5-3.3
	s1-2.9,1-4.4c0-1.6-0.4-2.8-1.3-3.7s-1.9-1.3-3.2-1.3c-2,0-3.7,0.9-4.9,2.8S159.4,22.4,159.4,24.7z"/>
<path class="st0" d="M194.1,32.6h-4.4l-3.6-20h4.1l2.5,15.2l8.3-15.2h4.1L194.1,32.6z"/>
<path class="st0" d="M203,32.6l4.2-20h14.9l-0.7,3.3h-10.7l-1,4.6h10.4l-0.7,3.3H209l-1.3,5.4h11.7l-0.7,3.3H203z"/>
<path class="st0" d="M235.8,23.7H228l-1.9,9H222l4.2-20h4.1l-1.6,7.7h7.8l1.6-7.7h4.1l-4.2,20h-4.1L235.8,23.7z"/>
<path class="st0" d="M242.2,32.6l4.2-20h4.1l-4.2,20H242.2z"/>
<path class="st0" d="M265,25.4l4.2,0.6c-0.8,2.3-2,4-3.7,5.2S262,33,259.8,33c-2.5,0-4.4-0.7-5.7-2.2s-2.1-3.6-2.1-6.4
	c0-2.3,0.5-4.4,1.4-6.3s2.2-3.3,3.8-4.3c1.6-1,3.4-1.5,5.4-1.5c2.2,0,3.9,0.6,5.3,1.7s2.1,2.7,2.4,4.8l-4,0.4
	c-0.2-1.2-0.6-2-1.3-2.5s-1.5-0.8-2.5-0.8c-1.1,0-2.2,0.3-3.2,1s-1.8,1.8-2.4,3.2S256,23,256,24.5c0,1.6,0.4,2.8,1.2,3.7
	s1.7,1.3,2.9,1.3c1.1,0,2-0.3,2.9-1S264.5,26.8,265,25.4z"/>
<path class="st0" d="M275.1,12.6h4.1L277,23.5l-0.6,2.7c0,0.2-0.1,0.4-0.1,0.6c0,0.8,0.3,1.4,0.9,2s1.4,0.8,2.5,0.8
	c1,0,1.8-0.2,2.5-0.6s1.1-0.9,1.5-1.7s0.7-2,1.1-3.8l2.3-11h4.1l-2.3,11c-0.5,2.3-1,4.1-1.7,5.3s-1.6,2.2-2.9,3s-2.9,1.1-4.8,1.1
	c-2.3,0-4.1-0.6-5.4-1.7s-1.9-2.6-1.9-4.4c0-0.4,0-0.8,0.1-1.2c0-0.3,0.2-1.1,0.5-2.5L275.1,12.6z"/>
<path class="st0" d="M291.5,32.6l4.2-20h4.1l-3.5,16.7h10.2l-0.7,3.3H291.5z"/>
<path class="st0" d="M321.9,28.2h-7.9l-2.4,4.4h-4.2l11.3-20h4.6l3.3,20h-3.9L321.9,28.2z M321.4,24.8l-1.2-8.1l-4.8,8.1H321.4z"/>
<path class="st0" d="M333.4,32.6h-4.1l4.2-20h8.9c1.5,0,2.7,0.2,3.6,0.5s1.5,0.9,2.1,1.7s0.8,1.9,0.8,3c0,1.7-0.5,3.1-1.5,4.2
	s-2.6,1.8-4.6,2.1c0.5,0.5,1,1.1,1.5,1.9c0.9,1.6,1.9,3.8,3.1,6.6h-4.4c-0.4-1.1-1.1-2.9-2.1-5.3c-0.6-1.3-1.2-2.2-1.8-2.6
	c-0.4-0.3-1.1-0.4-2.1-0.4h-1.7L333.4,32.6z M335.8,21.3h2.2c2.2,0,3.7-0.1,4.4-0.4s1.3-0.7,1.7-1.2s0.6-1.2,0.6-1.8
	c0-0.7-0.3-1.3-0.9-1.6c-0.4-0.2-1.2-0.3-2.4-0.3h-4.5L335.8,21.3z"/>
</svg>
