<?xml version="1.0" encoding="utf-8"?>
<!-- Generator: Adobe Illustrator 20.0.0, SVG Export Plug-In . SVG Version: 6.00 Build 0)  -->
<svg version="1.1" id="Capa_1" xmlns="http://www.w3.org/2000/svg" xmlns:xlink="http://www.w3.org/1999/xlink" x="0px" y="0px"
	 viewBox="0 0 407.4 32.6" style="enable-background:new 0 0 407.4 32.6;" xml:space="preserve">
<style type="text/css">
	.st0{fill:#30367C;}
	.st1{fill:none;stroke:#30367C;stroke-width:0.25;stroke-miterlimit:10;}
</style>
<g>
	<polygon class="st0" points="30,32.4 0,32.4 0,18.7 2.1,18 4.6,19.5 4.7,22.9 6.9,20.4 6.9,23 8.5,20.6 8.6,22.9 10.5,20.3 
		10.6,22.4 11,22.4 11,27.4 13,27.4 13,14.1 15,13.4 15,13.4 15,8.4 16,8.4 15.9,12.2 16.5,12.4 17,14.4 17.8,14.4 19.1,12.8 
		21,13.9 21,27.4 23,27.4 23,16.7 24.3,18.4 24.9,18.4 25,15.7 26.2,14.9 27.4,16.4 29,15.3 30,16.5 	"/>
	<circle class="st1" cx="15.6" cy="8.3" r="2.5"/>
	<circle class="st1" cx="15.7" cy="8.5" r="4.7"/>
	<circle class="st1" cx="15.8" cy="8.4" r="6.6"/>
	<circle class="st1" cx="15.7" cy="8.4" r="8.3"/>
	<g>
		<path class="st0" d="M48.2,32.2h-4l-0.7-16.3l-3.3,16.3h-3.8l4.3-19.5h6.1l0.6,13.7l7.1-13.7h6.1l-4.3,19.5h-3.9L56.3,16
			L48.2,32.2z"/>
		<path class="st0" d="M61.4,24.5c0-1.2,0.2-2.4,0.6-3.6c0.5-1.7,1.2-3.2,2.2-4.5c1-1.3,2.2-2.3,3.7-3c1.5-0.7,3.2-1.1,5.1-1.1
			c2.6,0,4.6,0.8,6.2,2.2c1.6,1.5,2.4,3.5,2.4,6c0,2.1-0.5,4-1.5,6c-1,1.9-2.4,3.4-4.2,4.4c-1.8,1-3.8,1.6-6,1.6
			c-1.9,0-3.5-0.4-4.9-1.2c-1.3-0.8-2.2-1.8-2.8-3.1C61.7,27,61.4,25.8,61.4,24.5z M65.6,24.4c0,1.3,0.4,2.5,1.3,3.4
			c0.9,0.9,2,1.4,3.4,1.4c1.1,0,2.3-0.4,3.3-1.1c1.1-0.7,1.9-1.8,2.6-3.2c0.7-1.5,1-2.9,1-4.2c0-1.5-0.4-2.7-1.3-3.6
			c-0.9-0.9-2-1.3-3.3-1.3c-2.1,0-3.8,0.9-5.1,2.7C66.3,20.2,65.6,22.3,65.6,24.4z"/>
		<path class="st0" d="M98.8,32.2h-4l-5.6-13.1l-2.9,13.1h-4l4.3-19.5h4l5.6,13l2.9-13h4L98.8,32.2z"/>
		<path class="st0" d="M102.7,32.2l4.3-19.5h4.3L107,32.2H102.7z"/>
		<path class="st0" d="M119.6,32.2h-4.3l3.6-16.2h-6.1l0.7-3.3h16.3l-0.7,3.3h-6L119.6,32.2z"/>
		<path class="st0" d="M128.8,24.5c0-1.2,0.2-2.4,0.6-3.6c0.5-1.7,1.2-3.2,2.2-4.5c1-1.3,2.2-2.3,3.7-3c1.5-0.7,3.2-1.1,5.1-1.1
			c2.6,0,4.6,0.8,6.2,2.2c1.6,1.5,2.4,3.5,2.4,6c0,2.1-0.5,4-1.5,6c-1,1.9-2.4,3.4-4.2,4.4c-1.8,1-3.8,1.6-6,1.6
			c-1.9,0-3.5-0.4-4.9-1.2c-1.3-0.8-2.2-1.8-2.8-3.1C129.1,27,128.8,25.8,128.8,24.5z M133,24.4c0,1.3,0.4,2.5,1.3,3.4
			c0.9,0.9,2,1.4,3.4,1.4c1.1,0,2.3-0.4,3.3-1.1c1.1-0.7,1.9-1.8,2.6-3.2c0.7-1.5,1-2.9,1-4.2c0-1.5-0.4-2.7-1.3-3.6
			c-0.9-0.9-2-1.3-3.3-1.3c-2.1,0-3.8,0.9-5.1,2.7C133.7,20.2,133,22.3,133,24.4z"/>
		<path class="st0" d="M154,32.2h-4.3l4.3-19.5h9.2c1.6,0,2.8,0.2,3.7,0.5c0.9,0.3,1.6,0.9,2.1,1.7c0.5,0.8,0.8,1.8,0.8,3
			c0,1.7-0.5,3-1.6,4.1s-2.6,1.7-4.8,2c0.5,0.5,1.1,1.1,1.5,1.8c1,1.5,2,3.7,3.2,6.5h-4.6c-0.4-1.1-1.1-2.8-2.2-5.1
			c-0.6-1.3-1.2-2.1-1.9-2.5c-0.4-0.3-1.1-0.4-2.1-0.4h-1.7L154,32.2z M156.5,21.2h2.3c2.3,0,3.8-0.1,4.6-0.4
			c0.7-0.3,1.3-0.7,1.8-1.2c0.4-0.5,0.6-1.1,0.6-1.7c0-0.7-0.3-1.2-0.9-1.6c-0.4-0.2-1.2-0.3-2.4-0.3h-4.7L156.5,21.2z"/>
		<path class="st0" d="M170.3,32.2l4.3-19.5h15.4l-0.7,3.3h-11.1l-1,4.4h10.7l-0.7,3.3h-10.7l-1.3,5.3h12l-0.7,3.3H170.3z"/>
		<path class="st0" d="M190.6,24.5c0-1.2,0.2-2.4,0.6-3.6c0.5-1.7,1.2-3.2,2.2-4.5c1-1.3,2.2-2.3,3.7-3c1.5-0.7,3.2-1.1,5.1-1.1
			c2.6,0,4.6,0.8,6.2,2.2c1.6,1.5,2.4,3.5,2.4,6c0,2.1-0.5,4-1.5,6c-1,1.9-2.4,3.4-4.2,4.4c-1.8,1-3.8,1.6-6,1.6
			c-1.9,0-3.5-0.4-4.9-1.2c-1.3-0.8-2.2-1.8-2.8-3.1C190.9,27,190.6,25.8,190.6,24.5z M194.8,24.4c0,1.3,0.4,2.5,1.3,3.4
			c0.9,0.9,2,1.4,3.4,1.4c1.1,0,2.3-0.4,3.3-1.1c1.1-0.7,1.9-1.8,2.6-3.2c0.7-1.5,1-2.9,1-4.2c0-1.5-0.4-2.7-1.3-3.6
			c-0.9-0.9-2-1.3-3.3-1.3c-2.1,0-3.8,0.9-5.1,2.7C195.5,20.2,194.8,22.3,194.8,24.4z"/>
		<path class="st0" d="M219.3,32.2l4.3-19.5h5.6c1.6,0,2.5,0,3,0.1c0.9,0.1,1.6,0.2,2.3,0.5c0.7,0.2,1.3,0.6,1.8,1
			c0.6,0.4,1,1,1.4,1.6c0.4,0.6,0.7,1.4,0.9,2.2c0.2,0.8,0.3,1.7,0.3,2.7c0,2.1-0.4,4-1.3,5.6c-0.9,1.6-1.9,2.9-3.2,3.9
			c-1,0.7-2.3,1.3-3.8,1.6c-0.9,0.2-2.2,0.3-4.1,0.3H219.3z M224.3,29h2.2c1.6,0,2.7-0.1,3.4-0.3c0.7-0.2,1.3-0.5,1.9-1
			c0.8-0.7,1.5-1.7,2.1-2.9c0.6-1.2,0.9-2.6,0.9-4.2c0-1.4-0.2-2.4-0.7-3.1c-0.5-0.7-1.1-1.2-1.8-1.4c-0.5-0.2-1.4-0.2-2.6-0.2h-2.5
			L224.3,29z"/>
		<path class="st0" d="M239.8,32.2l4.3-19.5h15.4l-0.7,3.3h-11.1l-1,4.4h10.7l-0.7,3.3H246l-1.3,5.3h12l-0.7,3.3H239.8z"/>
		<path class="st0" d="M279,27.8h-8.2l-2.5,4.3H264l11.7-19.5h4.7l3.4,19.5h-4L279,27.8z M278.5,24.6l-1.2-7.8l-5,7.8H278.5z"/>
		<path class="st0" d="M286.2,32.2l4.3-19.5h4.3l-3.6,16.2h10.5l-0.7,3.3H286.2z"/>
		<path class="st0" d="M317,27.8h-8.2l-2.5,4.3H302l11.7-19.5h4.7l3.4,19.5h-4L317,27.8z M316.5,24.6l-1.2-7.8l-5,7.8H316.5z"/>
		<path class="st0" d="M328.4,32.2h-4.3l4.3-19.5h9.2c1.6,0,2.8,0.2,3.7,0.5c0.9,0.3,1.6,0.9,2.1,1.7c0.5,0.8,0.8,1.8,0.8,3
			c0,1.7-0.5,3-1.6,4.1c-1.1,1.1-2.6,1.7-4.8,2c0.5,0.5,1.1,1.1,1.5,1.8c1,1.5,2,3.7,3.2,6.5h-4.6c-0.4-1.1-1.1-2.8-2.2-5.1
			c-0.6-1.3-1.2-2.1-1.9-2.5c-0.4-0.3-1.1-0.4-2.1-0.4h-1.7L328.4,32.2z M330.9,21.2h2.3c2.3,0,3.8-0.1,4.6-0.4
			c0.7-0.3,1.3-0.7,1.8-1.2c0.4-0.5,0.6-1.1,0.6-1.7c0-0.7-0.3-1.2-0.9-1.6c-0.4-0.2-1.2-0.3-2.4-0.3H332L330.9,21.2z"/>
		<path class="st0" d="M356.6,32.2h-4l-0.7-16.3l-3.3,16.3h-3.8l4.3-19.5h6.1l0.6,13.7l7.1-13.7h6.1l-4.3,19.5h-3.9l4.1-16.2
			L356.6,32.2z"/>
		<path class="st0" d="M382,27.8h-8.2l-2.5,4.3h-4.4l11.7-19.5h4.7l3.4,19.5h-4L382,27.8z M381.5,24.6l-1.2-7.8l-5,7.8H381.5z"/>
		<path class="st0" d="M389.7,25.8l4.1-0.2c0.1,1.2,0.3,2,0.7,2.5c0.6,0.7,1.8,1,3.4,1c1.4,0,2.4-0.2,3-0.7c0.6-0.5,0.9-1,0.9-1.7
			c0-0.6-0.3-1.1-0.8-1.5c-0.4-0.3-1.3-0.8-2.9-1.4c-1.6-0.7-2.8-1.2-3.5-1.6c-0.7-0.4-1.3-1-1.7-1.7c-0.4-0.7-0.6-1.5-0.6-2.5
			c0-1.6,0.6-3,1.9-4.1s3.1-1.6,5.5-1.6c2.4,0,4.3,0.5,5.6,1.6c1.3,1.1,2.1,2.5,2.2,4.3l-4.1,0.2c-0.1-0.9-0.5-1.6-1.1-2.1
			c-0.6-0.5-1.5-0.7-2.7-0.7c-1.2,0-2,0.2-2.5,0.6c-0.5,0.4-0.8,0.9-0.8,1.5c0,0.6,0.2,1,0.7,1.4c0.5,0.4,1.5,0.9,3.1,1.5
			c2.4,1,3.9,1.8,4.5,2.4c1,0.9,1.5,2,1.5,3.4c0,1.7-0.7,3.2-2.2,4.4c-1.4,1.2-3.5,1.8-6,1.8c-1.8,0-3.3-0.3-4.6-0.8
			c-1.3-0.6-2.2-1.3-2.8-2.3C389.9,28.3,389.7,27.1,389.7,25.8z"/>
	</g>
</g>
</svg>
