<?xml version="1.0" encoding="utf-8"?>
<!-- Generator: Adobe Illustrator 20.0.0, SVG Export Plug-In . SVG Version: 6.00 Build 0)  -->
<svg version="1.1" id="Capa_1" xmlns="http://www.w3.org/2000/svg" xmlns:xlink="http://www.w3.org/1999/xlink" x="0px" y="0px"
	 viewBox="0 0 197.3 32.6" style="enable-background:new 0 0 197.3 32.6;" xml:space="preserve">
<style type="text/css">
	.st0{fill:#30367C;}
	.st1{fill:none;stroke:#30367C;stroke-width:0.25;stroke-miterlimit:10;}
</style>
<polygon class="st0" points="30,32.4 0,32.4 0,18.7 2.1,18 4.6,19.5 4.7,22.9 6.9,20.4 6.9,23 8.5,20.6 8.6,22.9 10.5,20.3 
	10.6,22.4 11,22.4 11,27.4 13,27.4 13,14.1 15,13.4 15,13.4 15,8.4 16,8.4 15.9,12.2 16.5,12.4 17,14.4 17.8,14.4 19.1,12.8 
	21,13.9 21,27.4 23,27.4 23,16.7 24.3,18.4 24.9,18.4 25,15.7 26.2,14.9 27.4,16.4 29,15.3 30,16.5 "/>
<circle class="st1" cx="15.6" cy="8.3" r="2.5"/>
<circle class="st1" cx="15.7" cy="8.5" r="4.7"/>
<circle class="st1" cx="15.8" cy="8.4" r="6.6"/>
<circle class="st1" cx="15.7" cy="8.4" r="8.3"/>
<path class="st0" d="M46.1,32.6H42l3.5-16.7h-5.9l0.7-3.3h15.8l-0.7,3.3h-5.8L46.1,32.6z"/>
<path class="st0" d="M54.5,32.6l4.2-20h14.9l-0.7,3.3H62.1l-1,4.6h10.4l-0.7,3.3H60.5l-1.3,5.4h11.7l-0.7,3.3H54.5z"/>
<path class="st0" d="M73.3,32.6l4.2-20h4.1l-3.5,16.7h10.2l-0.7,3.3H73.3z"/>
<path class="st0" d="M90.3,32.6l4.2-20h14.9l-0.7,3.3H97.9l-1,4.6h10.4l-0.7,3.3H96.2L95,29.3h11.7l-0.7,3.3H90.3z"/>
<path class="st0" d="M119,32.6h-4.4l-3.6-20h4.1l2.5,15.2l8.3-15.2h4.1L119,32.6z"/>
<path class="st0" d="M127.5,32.6l4.2-20h4.1l-4.2,20H127.5z"/>
<path class="st0" d="M135.5,32.6l4.2-20h5.4c1.5,0,2.5,0,2.9,0.1c0.8,0.1,1.6,0.3,2.2,0.5c0.7,0.3,1.2,0.6,1.8,1.1s1,1,1.4,1.7
	c0.4,0.6,0.7,1.4,0.9,2.2c0.2,0.8,0.3,1.8,0.3,2.8c0,2.2-0.4,4.1-1.2,5.7c-0.8,1.7-1.9,3-3.1,4c-1,0.8-2.2,1.3-3.7,1.7
	c-0.9,0.2-2.2,0.3-4,0.3H135.5z M140.3,29.4h2.1c1.5,0,2.6-0.1,3.3-0.3c0.7-0.2,1.3-0.5,1.9-1c0.8-0.7,1.5-1.7,2.1-3
	c0.6-1.2,0.8-2.7,0.8-4.3c0-1.4-0.2-2.5-0.7-3.2c-0.5-0.7-1-1.2-1.7-1.4c-0.5-0.2-1.3-0.2-2.5-0.2h-2.4L140.3,29.4z"/>
<path class="st0" d="M155.6,32.6l4.2-20h14.9l-0.7,3.3h-10.7l-1,4.6h10.4l-0.7,3.3h-10.4l-1.3,5.4H172l-0.7,3.3H155.6z"/>
<path class="st0" d="M175.6,24.8c0-1.2,0.2-2.4,0.5-3.7c0.5-1.8,1.2-3.3,2.1-4.6c1-1.3,2.2-2.3,3.6-3.1s3.1-1.1,4.9-1.1
	c2.5,0,4.5,0.8,6,2.3c1.5,1.5,2.3,3.6,2.3,6.1c0,2.1-0.5,4.2-1.5,6.1c-1,2-2.3,3.5-4,4.6c-1.7,1.1-3.6,1.6-5.8,1.6
	c-1.9,0-3.4-0.4-4.7-1.3c-1.3-0.8-2.2-1.9-2.7-3.2C175.9,27.3,175.6,26,175.6,24.8z M179.7,24.7c0,1.4,0.4,2.5,1.3,3.5
	c0.8,0.9,1.9,1.4,3.3,1.4c1.1,0,2.2-0.4,3.2-1.1s1.9-1.8,2.5-3.3s1-2.9,1-4.4c0-1.6-0.4-2.8-1.3-3.7s-1.9-1.3-3.2-1.3
	c-2,0-3.7,0.9-4.9,2.8C180.3,20.4,179.7,22.4,179.7,24.7z"/>
</svg>
