<?xml version="1.0" encoding="UTF-8" standalone="no"?>
<!-- Generator: Adobe Illustrator 18.1.1, SVG Export Plug-In . SVG Version: 6.00 Build 0)  -->
<svg id="Capa_1" xmlns="http://www.w3.org/2000/svg" xml:space="preserve" viewBox="0 0 775.1 776.9" version="1.1" y="0px" x="0px" xmlns:xlink="http://www.w3.org/1999/xlink" enable-background="new 0 0 775.1 776.9">
<g stroke="#29337F" stroke-width="4" stroke-miterlimit="10" fill="#29337F">
	<path d="m219-1891.9h-11.5l9.8-46.5h-16.4l1.9-9.3h44l-1.9 9.3h-16.1l-9.8 46.5z"/>
	<path d="m246-1891.9l11.7-55.8h41.4l-1.9 9.3h-29.9l-2.7 12.7h28.9l-1.9 9.3h-28.9l-3.5 15.2h32.5l-2 9.3h-43.7z"/>
	<path d="m302-1891.9l11.7-55.8h11.5l-9.7 46.5h28.4l-1.9 9.3h-40z"/>
	<path d="m353-1891.9l11.7-55.8h41.4l-1.9 9.3h-29.9l-2.7 12.7h28.9l-1.9 9.3h-28.9l-3.5 15.2h32.5l-2 9.3h-43.7z"/>
	<path d="m410.5-1910l10.9-0.6c0.2 3.5 0.7 5.8 1.8 7 1.7 2 4.8 3 9.3 3 3.8 0 6.5-0.7 8.2-2s2.5-3 2.5-4.9c0-1.7-0.7-3-2.1-4.2-1-0.8-3.6-2.2-7.9-4.1s-7.5-3.4-9.5-4.7c-2-1.3-3.6-2.9-4.7-4.9s-1.7-4.4-1.7-7c0-4.7 1.7-8.6 5.1-11.7s8.3-4.6 14.8-4.6c6.6 0 11.6 1.5 15.2 4.6s5.6 7.2 5.9 12.3l-11 0.5c-0.3-2.7-1.2-4.7-2.9-6.1s-4.1-2.1-7.3-2.1c-3.2 0-5.4 0.6-6.8 1.7s-2 2.5-2 4.2c0 1.6 0.6 2.9 1.9 4 1.2 1.1 4 2.5 8.3 4.4 6.4 2.8 10.5 5 12.3 6.7 2.6 2.5 3.9 5.8 3.9 9.8 0 4.9-1.9 9.1-5.8 12.6s-9.3 5.2-16.3 5.2c-4.8 0-9-0.8-12.5-2.4s-6-3.9-7.4-6.7-2.3-6.2-2.2-10z"/>
	<path d="m464.4-1891.9l11.7-55.8h41.4l-1.9 9.3h-29.9l-2.7 12.7h28.9l-1.9 9.3h-29l-3.5 15.2h32.5l-2 9.3h-43.6z"/>
	<path d="m564.7-1891.9h-10.7l-15.1-37.5-7.8 37.5h-10.7l11.7-55.8h10.7l15.1 37.4 7.8-37.4h10.7l-11.7 55.8z"/>
	<path d="m604.4-1891.9h-11.5l9.8-46.5h-16.4l1.9-9.3h44l-1.9 9.3h-16.1l-9.8 46.5z"/>
	<path d="m630.9-1891.9l11.7-55.8h11.5l-11.7 55.8h-11.5z"/>
	<path d="m701.4-1891.9h-10.7l-15.1-37.5-7.8 37.5h-10.8l11.7-55.8h10.7l15.1 37.4 7.8-37.4h10.7l-11.6 55.8z"/>
	<path d="m716.7-1891.9l11.7-55.8h41.4l-1.9 9.3h-29.9l-2.7 12.7h28.9l-1.9 9.3h-28.9l-3.5 15.2h32.5l-2 9.3h-43.7z"/>
	<path d="m772.7-1891.9l11.7-55.8h11.5l-9.7 46.5h28.4l-1.9 9.3h-40z"/>
</g>
<circle cx="814.5" cy="-1939.8" stroke="#29337F" r="9.5" stroke-miterlimit="10" fill="none"/>
	<path d="m810-1933.5v-11.3h5c1 0 1.8 0.1 2.3 0.3s0.9 0.6 1.3 1.1c0.3 0.5 0.5 1.1 0.5 1.7 0 0.8-0.3 1.5-0.8 2s-1.3 0.9-2.4 1c0.4 0.2 0.7 0.4 0.9 0.6 0.4 0.4 0.8 0.9 1.2 1.5l2 3.1h-2l-1.5-2.3c-0.4-0.7-0.8-1.2-1.1-1.6s-0.5-0.6-0.8-0.8c-0.2-0.1-0.5-0.2-0.7-0.3-0.2 0-0.4-0.1-0.8-0.1h-1.7v5h-1.4zm1.5-6.3h3.2c0.7 0 1.2-0.1 1.6-0.2s0.7-0.4 0.9-0.7 0.3-0.6 0.3-1c0-0.5-0.2-1-0.6-1.3s-1-0.5-1.8-0.5h-3.6v3.7z" fill="#29337F"/>
<g fill="#29337F">
	<path d="m215.4-1845.4h-5.4l-1-23-4.4 23h-5.1l5.7-27.5h8.1l0.8 19.2 9.4-19.2h8.2l-5.8 27.5h-5.2l5.4-22.8-10.7 22.8z"/>
	<path d="m231.8-1856.2c0-1.6 0.2-3.3 0.7-5.1 0.6-2.4 1.6-4.5 2.9-6.3s3-3.2 4.9-4.2c2-1 4.2-1.5 6.8-1.5 3.4 0 6.1 1.1 8.2 3.2s3.1 4.9 3.1 8.4c0 2.9-0.7 5.7-2 8.4-1.4 2.7-3.2 4.8-5.5 6.3s-5 2.2-7.9 2.2c-2.6 0-4.7-0.6-6.4-1.7-1.7-1.2-3-2.6-3.7-4.3-0.7-1.9-1.1-3.7-1.1-5.4zm5.6-0.1c0 1.9 0.6 3.5 1.7 4.7 1.1 1.3 2.7 1.9 4.5 1.9 1.5 0 3-0.5 4.4-1.5s2.6-2.5 3.5-4.6c0.9-2 1.4-4 1.4-6 0-2.2-0.6-3.9-1.7-5.1-1.2-1.2-2.6-1.8-4.4-1.8-2.8 0-5 1.3-6.7 3.9-1.8 2.6-2.7 5.4-2.7 8.5z"/>
	<path d="m280.3-1845.4h-5.3l-7.4-18.5-3.9 18.5h-5.3l5.7-27.5h5.3l7.4 18.4 3.8-18.4h5.2l-5.5 27.5z"/>
	<path d="m284.3-1845.4l5.8-27.5h5.6l-5.7 27.5h-5.7z"/>
	<path d="m305.6-1845.4h-5.7l4.8-22.9h-8.1l1-4.6h21.6l-1 4.6h-7.9l-4.7 22.9z"/>
	<path d="m316.6-1856.2c0-1.6 0.2-3.3 0.7-5.1 0.6-2.4 1.6-4.5 2.9-6.3s3-3.2 4.9-4.2c2-1 4.2-1.5 6.8-1.5 3.4 0 6.1 1.1 8.2 3.2s3.1 4.9 3.1 8.4c0 2.9-0.7 5.7-2 8.4-1.4 2.7-3.2 4.8-5.5 6.3s-5 2.2-7.9 2.2c-2.6 0-4.7-0.6-6.4-1.7-1.7-1.2-3-2.6-3.7-4.3-0.7-1.9-1.1-3.7-1.1-5.4zm5.6-0.1c0 1.9 0.6 3.5 1.7 4.7 1.1 1.3 2.7 1.9 4.5 1.9 1.5 0 3-0.5 4.4-1.5s2.6-2.5 3.5-4.6c0.9-2 1.4-4 1.4-6 0-2.2-0.6-3.9-1.7-5.1-1.2-1.2-2.6-1.8-4.4-1.8-2.8 0-5 1.3-6.7 3.9-1.8 2.6-2.7 5.4-2.7 8.5z"/>
	<path d="m348.9-1845.4h-5.7l5.8-27.5h12.2c2.1 0 3.7 0.2 4.9 0.6s2.1 1.2 2.8 2.4c0.7 1.1 1.1 2.5 1.1 4.2 0 2.3-0.7 4.3-2.1 5.8s-3.5 2.5-6.4 2.8c0.7 0.6 1.4 1.5 2 2.6 1.3 2.1 2.7 5.2 4.2 9.1h-6.1c-0.5-1.5-1.4-4-2.9-7.3-0.8-1.8-1.6-3-2.5-3.6-0.5-0.4-1.5-0.5-2.8-0.5h-2.3l-2.2 11.4zm3.3-15.5h3c3 0 5-0.2 6-0.5 1-0.4 1.8-0.9 2.3-1.7 0.6-0.8 0.8-1.6 0.8-2.4 0-1-0.4-1.7-1.2-2.2-0.5-0.3-1.6-0.4-3.2-0.4h-6.2l-1.5 7.2z"/>
	<path d="m369.3-1845.4l5.7-27.5h20.4l-1 4.6h-14.7l-1.3 6.2h14.2l-1 4.6h-14.2l-1.7 7.5h16l-1 4.6h-21.4z"/>
	<path d="m395.2-1856.2c0-1.6 0.2-3.3 0.7-5.1 0.6-2.4 1.6-4.5 2.9-6.3s3-3.2 4.9-4.2c2-1 4.2-1.5 6.8-1.5 3.4 0 6.1 1.1 8.2 3.2s3.1 4.9 3.1 8.4c0 2.9-0.7 5.7-2 8.4-1.4 2.7-3.2 4.8-5.5 6.3s-5 2.2-7.9 2.2c-2.6 0-4.7-0.6-6.4-1.7-1.7-1.2-3-2.6-3.7-4.3-0.8-1.9-1.1-3.7-1.1-5.4zm5.6-0.1c0 1.9 0.6 3.5 1.7 4.7 1.1 1.3 2.7 1.9 4.5 1.9 1.5 0 3-0.5 4.4-1.5s2.6-2.5 3.5-4.6c0.9-2 1.4-4 1.4-6 0-2.2-0.6-3.9-1.7-5.1-1.2-1.2-2.6-1.8-4.4-1.8-2.8 0-5 1.3-6.7 3.9-1.9 2.6-2.7 5.4-2.7 8.5z"/>
	<path d="m430.9-1845.4l5.8-27.5h7.4c2.1 0 3.4 0 4 0.1 1.1 0.1 2.2 0.3 3 0.7s1.7 0.8 2.4 1.5c0.7 0.6 1.4 1.4 1.9 2.3s0.9 1.9 1.2 3.1 0.4 2.4 0.4 3.8c0 3-0.6 5.6-1.7 7.9s-2.6 4.1-4.3 5.5c-1.3 1-3 1.8-5.1 2.3-1.2 0.3-3 0.4-5.4 0.4h-9.6zm6.6-4.5h2.9c2.1 0 3.6-0.1 4.5-0.4s1.8-0.7 2.6-1.4c1.1-1 2-2.4 2.8-4 0.8-1.7 1.1-3.7 1.1-6 0-1.9-0.3-3.4-0.9-4.4s-1.4-1.6-2.3-2c-0.6-0.2-1.8-0.3-3.5-0.3h-3.3l-3.9 18.5z"/>
	<path d="m457-1845.4l5.7-27.5h20.4l-1 4.6h-14.7l-1.3 6.2h14.2l-1 4.6h-14.2l-1.7 7.5h16l-1 4.6h-21.4z"/>
	<path d="m506.8-1851.5h-10.9l-3.3 6.1h-5.8l15.5-27.5h6.3l4.5 27.5h-5.4l-0.9-6.1zm-0.7-4.6l-1.6-11.1-6.6 11.1h8.2z"/>
	<path d="m515.1-1845.4l5.8-27.5h5.6l-4.8 22.9h14l-1 4.6h-19.6z"/>
	<path d="m554.8-1851.5h-10.8l-3.3 6.1h-5.8l15.5-27.5h6.3l4.5 27.5h-5.4l-1-6.1zm-0.7-4.6l-1.6-11.1-6.6 11.1h8.2z"/>
	<path d="m568.8-1845.4h-5.7l5.8-27.5h12.2c2.1 0 3.7 0.2 4.9 0.6s2.1 1.2 2.8 2.4c0.7 1.1 1.1 2.5 1.1 4.2 0 2.3-0.7 4.3-2.1 5.8s-3.5 2.5-6.4 2.8c0.7 0.6 1.4 1.5 2 2.6 1.3 2.1 2.7 5.2 4.2 9.1h-6.1c-0.5-1.5-1.4-4-2.9-7.3-0.8-1.8-1.6-3-2.5-3.6-0.5-0.4-1.5-0.5-2.8-0.5h-2.3l-2.2 11.4zm3.2-15.5h3c3 0 5-0.2 6-0.5 1-0.4 1.8-0.9 2.3-1.7s0.8-1.6 0.8-2.4c0-1-0.4-1.7-1.2-2.2-0.5-0.3-1.6-0.4-3.2-0.4h-6.2l-1.5 7.2z"/>
	<path d="m605-1845.4h-5.4l-1-23-4.4 23h-5.1l5.7-27.5h8.1l0.8 19.2 9.4-19.2h8.1l-5.8 27.5h-5.2l5.4-22.8-10.6 22.8z"/>
	<path d="m637.6-1851.5h-10.9l-3.3 6.1h-5.8l15.5-27.5h6.3l4.5 27.5h-5.4l-0.9-6.1zm-0.7-4.6l-1.6-11.1-6.6 11.1h8.2z"/>
	<path d="m646.7-1854.3l5.4-0.3c0.1 1.7 0.4 2.9 0.9 3.5 0.8 1 2.3 1.5 4.6 1.5 1.8 0 3.2-0.3 4-1s1.2-1.5 1.2-2.4c0-0.8-0.3-1.5-1-2.1-0.5-0.4-1.8-1.1-3.9-2s-3.7-1.7-4.7-2.3-1.8-1.4-2.3-2.4c-0.6-1-0.8-2.1-0.8-3.5 0-2.3 0.8-4.2 2.5-5.8 1.7-1.5 4.1-2.3 7.3-2.3s5.7 0.8 7.5 2.3 2.7 3.5 2.9 6l-5.4 0.2c-0.1-1.3-0.6-2.3-1.4-3s-2-1-3.6-1-2.7 0.3-3.3 0.8c-0.7 0.5-1 1.2-1 2.1 0 0.8 0.3 1.4 0.9 1.9s2 1.2 4.1 2.2c3.2 1.4 5.2 2.5 6 3.3 1.3 1.2 1.9 2.9 1.9 4.8 0 2.4-1 4.5-2.9 6.2s-4.6 2.6-8 2.6c-2.4 0-4.4-0.4-6.1-1.2s-3-1.9-3.7-3.3c-0.9-1.4-1.2-3-1.1-4.8z"/>
	<path d="m692.1-1845.4h-5.6l2.2-10.7-7.6-16.8h6l3.4 7.8c0.8 1.9 1.4 3.2 1.6 4 0.5-0.8 1-1.7 1.6-2.6l2.6-3.6 3.9-5.6h6.6l-12.6 17.3-2.1 10.2z"/>
	<path d="m724.5-1845.4h-6l-4.9-27.5h5.6l3.5 20.8 11.4-20.8h5.6l-15.2 27.5z"/>
	<path d="m734.6-1845.4l5.8-27.5h5.6l-5.7 27.5h-5.7z"/>
	<path d="m744.1-1845.4l5.8-27.5h7.4c2.1 0 3.4 0 4 0.1 1.1 0.1 2.2 0.3 3 0.7s1.7 0.8 2.4 1.5c0.7 0.6 1.4 1.4 1.9 2.3s0.9 1.9 1.2 3.1 0.4 2.4 0.4 3.8c0 3-0.6 5.6-1.7 7.9s-2.6 4.1-4.3 5.5c-1.3 1-3 1.8-5.1 2.3-1.2 0.3-3 0.4-5.4 0.4h-9.6zm6.5-4.5h2.9c2.1 0 3.6-0.1 4.5-0.4s1.8-0.7 2.6-1.4c1.1-1 2-2.4 2.8-4 0.8-1.7 1.1-3.7 1.1-6 0-1.9-0.3-3.4-0.9-4.4s-1.4-1.6-2.3-2c-0.6-0.2-1.8-0.3-3.5-0.3h-3.3l-3.9 18.5z"/>
	<path d="m770.1-1845.4l5.7-27.5h20.4l-1 4.6h-14.7l-1.3 6.2h14.2l-1 4.6h-14.2l-1.7 7.5h16l-1 4.6h-21.4z"/>
	<path d="m796-1856.2c0-1.6 0.2-3.3 0.7-5.1 0.6-2.4 1.6-4.5 2.9-6.3s3-3.2 4.9-4.2c2-1 4.2-1.5 6.8-1.5 3.4 0 6.1 1.1 8.2 3.2s3.1 4.9 3.1 8.4c0 2.9-0.7 5.7-2 8.4-1.4 2.7-3.2 4.8-5.5 6.3s-5 2.2-7.9 2.2c-2.6 0-4.7-0.6-6.4-1.7-1.7-1.2-3-2.6-3.7-4.3-0.8-1.9-1.1-3.7-1.1-5.4zm5.6-0.1c0 1.9 0.6 3.5 1.7 4.7 1.1 1.3 2.7 1.9 4.5 1.9 1.5 0 3-0.5 4.4-1.5s2.6-2.5 3.5-4.6c0.9-2 1.4-4 1.4-6 0-2.2-0.6-3.9-1.7-5.1-1.2-1.2-2.6-1.8-4.4-1.8-2.8 0-5 1.3-6.7 3.9-1.9 2.6-2.7 5.4-2.7 8.5z"/>
</g>
	<polygon points="235.8 -495.4 8 -723.9 8 -1046.1 235.8 -1269.4 557.9 -1269.4 782 -1046.1 782 -723.9 557.9 -495.4" fill="#F8E300"/>
	<g fill="#006BAD">
			<rect transform="matrix(-1 .0034901 -.0034901 -1 1000.1 -2436.4)" height="35.8" width="35.8" y="-1235.3" x="484.3"/>
			<rect transform="matrix(-1 .0034901 -.0034901 -1 928.1 -2507.7)" height="35.8" width="35.8" y="-1270.9" x="448.3"/>
			<rect transform="matrix(-1 .0034901 -.0034901 -1 856.85 -2435.7)" height="35.8" width="35.8" y="-1235" x="412.6"/>
			<rect transform="matrix(-1 .0034901 -.0034901 -1 784.85 -2506.9)" height="35.8" width="35.8" y="-1270.7" x="376.7"/>
			<rect transform="matrix(-1 .0034901 -.0034901 -1 713.6 -2434.9)" height="35.8" width="35.8" y="-1234.8" x="341"/>
			<rect transform="matrix(-1 .0034901 -.0034901 -1 641.6 -2506.2)" height="35.8" width="35.8" y="-1270.4" x="305.1"/>
			<rect transform="matrix(-1 .0034901 -.0034901 -1 570.35 -2434.2)" height="35.8" width="35.8" y="-1234.5" x="269.4"/>
	</g>
	<g fill="#006BAD">
			<rect transform="matrix(-.7096 -.7046 .7046 -.7096 1946.1 -1286.6)" height="35.8" width="35.8" y="-1062.3" x="690"/>
			<rect transform="matrix(-.7096 -.7046 .7046 -.7096 1981.5 -1373.3)" height="35.8" width="35.8" y="-1112.9" x="689.8"/>
			<rect transform="matrix(-.7096 -.7046 .7046 -.7096 1894.7 -1408.7)" height="35.8" width="35.8" y="-1112.7" x="639.1"/>
			<rect transform="matrix(-.7096 -.7046 .7046 -.7096 1930.1 -1495.4)" height="35.8" width="35.8" y="-1163.4" x="639"/>
			<rect transform="matrix(-.7096 -.7046 .7046 -.7096 1843.4 -1530.8)" height="35.8" width="35.8" y="-1163.2" x="588.3"/>
			<rect transform="matrix(-.7096 -.7046 .7046 -.7096 1878.8 -1617.5)" height="35.8" width="35.8" y="-1213.9" x="588.1"/>
			<rect transform="matrix(-.7096 -.7046 .7046 -.7096 1792.1 -1652.9)" height="35.8" width="35.8" y="-1213.7" x="537.5"/>
	</g>
	<g fill="#006BAD">
			<rect transform="matrix(-0.00349 -1 1 -0.00349 1513.7 -54.966)" height="35.8" width="35.8" y="-799.6" x="711.6"/>
			<rect transform="matrix(-0.00349 -1 1 -0.00349 1585.5 -55.342)" height="35.8" width="35.8" y="-835.6" x="747.3"/>
			<rect transform="matrix(-0.00349 -1 1 -0.00349 1585.1 -127.09)" height="35.8" width="35.8" y="-871.2" x="711.3"/>
			<rect transform="matrix(-0.00349 -1 1 -0.00349 1656.9 -127.47)" height="35.8" width="35.8" y="-907.2" x="747"/>
			<rect transform="matrix(-0.00349 -1 1 -0.00349 1656.5 -199.22)" height="35.8" width="35.8" y="-942.9" x="711.1"/>
			<rect transform="matrix(-0.00349 -1 1 -0.00349 1728.2 -199.59)" height="35.8" width="35.8" y="-978.8" x="746.8"/>
			<rect transform="matrix(-0.00349 -1 1 -0.00349 1727.9 -271.34)" height="35.8" width="35.8" y="-1014.5" x="710.8"/>
	</g>
	<g fill="#006BAD">
			<rect transform="matrix(.7046 -.7096 .7096 .7046 570.74 226.07)" height="35.8" width="35.8" y="-590.4" x="539"/>
			<rect transform="matrix(.7046 -.7096 .7096 .7046 585.83 261.96)" height="35.8" width="35.8" y="-590.6" x="589.7"/>
			<rect transform="matrix(.7046 -.7096 .7096 .7046 621.71 246.87)" height="35.8" width="35.8" y="-641.3" x="589.5"/>
			<rect transform="matrix(.7046 -.7096 .7096 .7046 636.8 282.76)" height="35.8" width="35.8" y="-641.4" x="640.1"/>
			<rect transform="matrix(.7046 -.7096 .7096 .7046 672.68 267.67)" height="35.8" width="35.8" y="-692.1" x="640"/>
			<rect transform="matrix(.7046 -.7096 .7096 .7046 687.77 303.56)" height="35.8" width="35.8" y="-692.3" x="690.6"/>
			<rect transform="matrix(.7046 -.7096 .7096 .7046 723.65 288.47)" height="35.8" width="35.8" y="-742.9" x="690.4"/>
	</g>
	<g fill="#006BAD">
			<rect transform="matrix(1 -0.00349 0.00349 1 1.917 1.0179)" height="35.8" width="35.8" y="-566.7" x="274.7"/>
			<rect transform="matrix(1 -0.00349 0.00349 1 1.7926 1.1435)" height="35.8" width="35.8" y="-531" x="310.6"/>
			<rect transform="matrix(1 -0.00349 0.00349 1 1.9183 1.2679)" height="35.8" width="35.8" y="-566.9" x="346.3"/>
			<rect transform="matrix(1 -0.00349 0.00349 1 1.7939 1.3935)" height="35.8" width="35.8" y="-531.2" x="382.3"/>
			<rect transform="matrix(1 -0.00349 0.00349 1 1.9196 1.5178)" height="35.8" width="35.8" y="-567.2" x="418"/>
			<rect transform="matrix(1 -0.00349 0.00349 1 1.7952 1.6435)" height="35.8" width="35.8" y="-531.5" x="453.9"/>
			<rect transform="matrix(1 -0.00349 0.00349 1 1.9209 1.7678)" height="35.8" width="35.8" y="-567.4" x="489.6"/>
	</g>
	<g fill="#006BAD">
			<rect transform="matrix(.7096 .7046 -.7046 .7096 -485.85 -269.08)" height="35.8" width="35.8" y="-741.8" x="65.6"/>
			<rect transform="matrix(.7096 .7046 -.7046 .7096 -450.11 -254.5)" height="35.8" width="35.8" y="-691.2" x="65.8"/>
			<rect transform="matrix(.7096 .7046 -.7046 .7096 -435.53 -290.24)" height="35.8" width="35.8" y="-691.4" x="116.4"/>
			<rect transform="matrix(.7096 .7046 -.7046 .7096 -399.79 -275.65)" height="35.8" width="35.8" y="-640.7" x="116.6"/>
			<rect transform="matrix(.7096 .7046 -.7046 .7096 -385.2 -311.39)" height="35.8" width="35.8" y="-640.9" x="167.2"/>
			<rect transform="matrix(.7096 .7046 -.7046 .7096 -349.46 -296.81)" height="35.8" width="35.8" y="-590.2" x="167.4"/>
			<rect transform="matrix(.7096 .7046 -.7046 .7096 -334.88 -332.55)" height="35.8" width="35.8" y="-590.4" x="218.1"/>
	</g>
	<g fill="#006BAD">
			<rect transform="matrix(0.00349 1 -1 0.00349 -929.46 -1050.1)" height="35.8" width="35.8" y="-1009.3" x="44.3"/>
			<rect transform="matrix(0.00349 1 -1 0.00349 -929.09 -978.6)" height="35.8" width="35.8" y="-973.4" x="8.6"/>
			<rect transform="matrix(0.00349 1 -1 0.00349 -857.58 -978.98)" height="35.8" width="35.8" y="-937.7" x="44.5"/>
			<rect transform="matrix(0.00349 1 -1 0.00349 -857.21 -907.48)" height="35.8" width="35.8" y="-901.7" x="8.8"/>
			<rect transform="matrix(0.00349 1 -1 0.00349 -785.71 -907.85)" height="35.8" width="35.8" y="-866.1" x="44.8"/>
			<rect transform="matrix(0.00349 1 -1 0.00349 -785.34 -836.35)" height="35.8" width="35.8" y="-830.1" x="9.1"/>
			<rect transform="matrix(0.00349 1 -1 0.00349 -713.84 -836.72)" height="35.8" width="35.8" y="-794.4" x="45"/>
	</g>
	<g fill="#006BAD">
			<rect transform="matrix(-.711 .7032 -.7032 -.711 -436.22 -2212.6)" height="35.8" width="35.8" y="-1213.8" x="218.7"/>
			<rect transform="matrix(-.711 .7032 -.7032 -.711 -523.07 -2177.5)" height="35.8" width="35.8" y="-1214.1" x="168"/>
			<rect transform="matrix(-.711 .7032 -.7032 -.711 -487.93 -2090.6)" height="35.8" width="35.8" y="-1163.5" x="167.7"/>
			<rect transform="matrix(-.711 .7032 -.7032 -.711 -574.78 -2055.5)" height="35.8" width="35.8" y="-1163.8" x="117.1"/>
			<rect transform="matrix(-.711 .7032 -.7032 -.711 -539.65 -1968.6)" height="35.8" width="35.8" y="-1113.1" x="116.8"/>
			<rect transform="matrix(-.711 .7032 -.7032 -.711 -626.5 -1933.5)" height="35.8" width="35.8" y="-1113.4" x="66.2"/>
			<rect transform="matrix(-.711 .7032 -.7032 -.711 -591.36 -1846.6)" height="35.8" width="35.8" y="-1062.7" x="65.9"/>
	</g>
	<polygon points="251.4 -530.4 236 -546.3 210.7 -520.8 236.1 -495.4 274.6 -495.6 274.8 -530.4" fill="#006BAD"/>
	<polygon points="542 -532.5 521.2 -532.3 521.6 -496.2 557.7 -496 582.8 -521.3 556.6 -547.2" fill="#006BAD"/>
	<polygon points="745.9 -738.4 731.4 -723.6 757.2 -698.3 782.8 -723.7 782.7 -759.3 745.9 -759.2" fill="#006BAD"/>
	<polygon points="746.4 -1030.4 746.6 -1009.6 782.7 -1010 782.9 -1046.1 757.9 -1070.9 731.9 -1044.8" fill="#006BAD"/>
	<polygon points="542 -1236 556.9 -1220.4 582.1 -1246.3 556.7 -1272 516.8 -1271.9 516.9 -1235.9" fill="#006BAD"/>
	<polygon points="251.5 -1233.8 272.2 -1234 271.9 -1270.1 235.8 -1270.2 211.1 -1245.3 237.2 -1219.4" fill="#006BAD"/>
	<polygon points="45 -1030.6 56.9 -1045.5 32.8 -1070.7 8.5 -1046.1 9.1 -1004.3 45.1 -1004.4" fill="#006BAD"/>
	<polygon points="45.2 -739.1 44.9 -759.8 8.9 -759.5 8.8 -723.5 33.6 -698.8 59.6 -724.9" fill="#006BAD"/>
	<polygon points="476 -757.4 298 -757.4 298 -839 309.9 -843.7 324.8 -833.9 325.2 -812.9 339.1 -828.3 338.8 -812 348.8 -827 349.8 -812.9 361.7 -827.2 362 -812.4 367 -812.4 367 -793.4 383 -793.4 383 -867.8 389.8 -880.4 393 -880.4 393 -905.4 395.9 -905.4 395.7 -880.5 399.2 -880.1 402.3 -867.4 407.2 -867.4 417.6 -876.5 432 -868.9 432 -792.4 445 -792.4 445 -851.5 448.6 -847.4 452.4 -847.4 453 -861.2 460.1 -864.4 467.9 -854.5 473.6 -861 476 -852.8" fill="#29337F"/>
	<circle cx="394.5" cy="-904.1" stroke="#29337F" r="15.9" stroke-miterlimit="10" fill="none"/>
	<circle cx="395.3" cy="-903.3" stroke="#29337F" r="29.6" stroke-miterlimit="10" fill="none"/>
	<circle cx="395.6" cy="-903.4" stroke="#29337F" r="41.6" stroke-miterlimit="10" fill="none"/>
	<circle cx="395.2" cy="-903.7" stroke="#29337F" r="52" stroke-miterlimit="10" fill="none"/>
	<g stroke="#29337F" stroke-miterlimit="10" fill="#29337F">
		<path d="m216.9-697.6h-6.7l5.7-27h-9.5l1.1-5.4 25.6 0.1-1.1 5.4h-9.4l-5.7 26.9z"/>
		<path d="m232.6-697.5l6.9-32.4 24.1 0.1-1.1 5.4-17.4-0.1-1.6 7.4 16.8 0.1-1.1 5.4-16.8-0.1-2.1 8.8 18.9 0.1-1.2 5.4-25.4-0.1z"/>
		<path d="m265.2-697.4l6.9-32.4h6.7l-5.7 27 16.5 0.1-1.1 5.4-23.3-0.1z"/>
		<path d="m294.8-697.3l6.9-32.4 24.1 0.1-1.1 5.4-17.4-0.1-1.6 7.4 16.8 0.1-1.1 5.4-16.8-0.1-2.1 8.8 18.9 0.1-1.2 5.4-25.4-0.1z"/>
		<path d="m328.2-707.8l6.4-0.3c0.1 2 0.4 3.4 1 4.1 1 1.2 2.8 1.7 5.4 1.7 2.2 0 3.8-0.4 4.7-1.2 1-0.8 1.5-1.7 1.5-2.8 0-1-0.4-1.8-1.2-2.4-0.6-0.5-2.1-1.3-4.6-2.4s-4.3-2-5.5-2.8c-1.2-0.7-2.1-1.7-2.7-2.9-0.7-1.2-1-2.5-1-4.1 0-2.7 1-5 3-6.8s4.8-2.7 8.6-2.7 6.8 0.9 8.8 2.7 3.2 4.2 3.4 7.1l-6.4 0.3c-0.2-1.5-0.7-2.7-1.7-3.6-1-0.8-2.4-1.2-4.2-1.3-1.8 0-3.2 0.3-4 1-0.8 0.6-1.2 1.5-1.2 2.5 0 0.9 0.4 1.7 1.1 2.3s2.3 1.5 4.8 2.6c3.7 1.6 6.1 2.9 7.1 3.9 1.5 1.5 2.3 3.4 2.3 5.7 0 2.9-1.1 5.3-3.4 7.3s-5.4 3-9.5 3c-2.8 0-5.2-0.5-7.2-1.4s-3.5-2.2-4.3-3.9c-0.8-1.5-1.2-3.4-1.2-5.6z"/>
		<path d="m359.5-697.1l6.9-32.4 24.1 0.1-1.1 5.4-17.4-0.1-1.6 7.4 16.8 0.1-1.1 5.4-16.8-0.1-2.1 8.8 18.9 0.1-1.2 5.4-25.4-0.1z"/>
		<path d="m417.9-697h-6.2l-8.7-21.8-4.6 21.8h-6.2l6.9-32.4h6.2l8.7 21.7 4.6-21.7h6.2l-6.9 32.4z"/>
		<path d="m440.9-696.9h-6.7l5.7-27h-9.5l1.1-5.4 25.6 0.1-1.1 5.4h-9.4l-5.7 26.9z"/>
		<path d="m456.3-696.9l6.9-32.4h6.7l-6.9 32.4h-6.7z"/>
		<path d="m497.3-696.7h-6.2l-8.7-21.8-4.6 21.8h-6.2l6.9-32.4h6.2l8.7 21.7 4.6-21.7h6.2l-6.9 32.4z"/>
		<path d="m506.2-696.7l6.9-32.4 24.1 0.1-1.1 5.4-17.4-0.1-1.6 7.4 16.8 0.1-1.1 5.4-16.8-0.1-2.1 8.8 18.9 0.1-1.2 5.4-25.4-0.1z"/>
		<path d="m538.7-696.6l6.9-32.4h6.7l-5.7 27 16.5 0.1-1.1 5.4-23.3-0.1z"/>
	</g>
	<circle r="5.5" cy="-725.5" stroke="#666" cx="562.9" stroke-miterlimit="10" stroke-width=".1" fill="none"/>
		<path d="m560.3-721.9v-6.6h2.9c0.6 0 1 0.1 1.3 0.2s0.5 0.3 0.7 0.6 0.3 0.6 0.3 1c0 0.5-0.1 0.9-0.4 1.2s-0.8 0.5-1.4 0.6c0.2 0.1 0.4 0.2 0.5 0.3 0.3 0.2 0.5 0.5 0.7 0.9l1.1 1.8h-1.1l-0.9-1.4c-0.3-0.4-0.5-0.7-0.6-0.9-0.2-0.2-0.3-0.4-0.4-0.4-0.1-0.1-0.3-0.1-0.4-0.2h-0.5-1v2.9h-0.8zm0.9-3.6h1.9c0.4 0 0.7 0 0.9-0.1s0.4-0.2 0.5-0.4 0.2-0.4 0.2-0.6c0-0.3-0.1-0.6-0.3-0.8s-0.6-0.3-1.1-0.3h-2.1v2.2z" fill="#666"/>
	<g fill="#29337F">
		<path d="m214.8-670.6h-3.1l-0.5-13.3-2.6 13.3h-3l3.4-16h4.7l0.5 11.2 5.5-11.2h4.7l-3.4 16h-3l3.2-13.2-6.4 13.2z"/>
		<path d="m224.3-676.8c0-0.9 0.1-1.9 0.4-3 0.4-1.4 0.9-2.6 1.7-3.6s1.7-1.8 2.9-2.4 2.5-0.9 3.9-0.9c2 0 3.6 0.6 4.8 1.9 1.2 1.2 1.8 2.9 1.8 4.9 0 1.7-0.4 3.3-1.2 4.9s-1.9 2.8-3.2 3.6c-1.4 0.8-2.9 1.3-4.6 1.3-1.5 0-2.7-0.3-3.7-1s-1.7-1.5-2.1-2.5c-0.5-1.2-0.7-2.2-0.7-3.2zm3.3-0.1c0 1.1 0.3 2 1 2.8 0.7 0.7 1.5 1.1 2.6 1.1 0.9 0 1.7-0.3 2.6-0.9 0.8-0.6 1.5-1.5 2-2.7s0.8-2.3 0.8-3.5c0-1.3-0.3-2.2-1-3-0.7-0.7-1.5-1.1-2.6-1.1-1.6 0-2.9 0.7-3.9 2.2-1 1.7-1.5 3.3-1.5 5.1z"/>
		<path d="m252.5-670.5h-3.1l-4.3-10.7-2.3 10.7h-3.1l3.4-16h3.1l4.3 10.7 2.3-10.7h3l-3.3 16z"/>
		<path d="m254.8-670.5l3.4-16h3.3l-3.4 16h-3.3z"/>
		<path d="m267.2-670.4h-3.3l2.8-13.3h-4.7l0.6-2.7h12.6l-0.6 2.7h-4.6l-2.8 13.3z"/>
		<path d="m273.6-676.7c0-0.9 0.1-1.9 0.4-3 0.4-1.4 0.9-2.6 1.7-3.6s1.7-1.8 2.9-2.4 2.5-0.9 3.9-0.9c2 0 3.6 0.6 4.8 1.9 1.2 1.2 1.8 2.9 1.8 4.9 0 1.7-0.4 3.3-1.2 4.9s-1.9 2.8-3.2 3.6c-1.4 0.8-2.9 1.3-4.6 1.3-1.5 0-2.7-0.3-3.7-1s-1.7-1.5-2.1-2.5c-0.5-1.2-0.7-2.2-0.7-3.2zm3.3 0c0 1.1 0.3 2 1 2.8 0.7 0.7 1.5 1.1 2.6 1.1 0.9 0 1.7-0.3 2.6-0.9 0.8-0.6 1.5-1.5 2-2.7s0.8-2.3 0.8-3.5c0-1.3-0.3-2.2-1-3-0.7-0.7-1.5-1.1-2.6-1.1-1.6 0-2.9 0.7-3.9 2.2-1 1.6-1.5 3.3-1.5 5.1z"/>
		<path d="m292.4-670.4h-3.3l3.4-16h7.1c1.2 0 2.2 0.1 2.8 0.4 0.7 0.3 1.2 0.7 1.6 1.4s0.6 1.5 0.6 2.4c0 1.4-0.4 2.5-1.2 3.4s-2 1.4-3.7 1.6c0.4 0.4 0.8 0.9 1.2 1.5 0.7 1.3 1.5 3 2.4 5.3h-3.5c-0.3-0.9-0.8-2.3-1.7-4.2-0.4-1-0.9-1.7-1.4-2.1-0.3-0.2-0.9-0.3-1.6-0.3h-1.3l-1.4 6.6zm1.9-9h1.7c1.8 0 2.9-0.1 3.5-0.3s1-0.5 1.4-1c0.3-0.4 0.5-0.9 0.5-1.4 0-0.6-0.2-1-0.7-1.3-0.3-0.2-0.9-0.3-1.9-0.3h-3.6l-0.9 4.3z"/>
		<path d="m304.2-670.3l3.4-16h11.8l-0.6 2.7h-8.5l-0.8 3.6h8.3l-0.6 2.7h-8.3l-1 4.3h9.3l-0.6 2.7h-12.4z"/>
		<path d="m319.3-676.5c0-0.9 0.1-1.9 0.4-3 0.4-1.4 0.9-2.6 1.7-3.6s1.7-1.8 2.9-2.4 2.5-0.9 3.9-0.9c2 0 3.6 0.6 4.8 1.9 1.2 1.2 1.8 2.9 1.8 4.9 0 1.7-0.4 3.3-1.2 4.9s-1.9 2.8-3.2 3.6c-1.4 0.8-2.9 1.3-4.6 1.3-1.5 0-2.7-0.3-3.7-1s-1.7-1.5-2.1-2.5c-0.5-1.2-0.7-2.2-0.7-3.2zm3.2-0.1c0 1.1 0.3 2 1 2.8 0.7 0.7 1.5 1.1 2.6 1.1 0.9 0 1.7-0.3 2.6-0.9 0.8-0.6 1.5-1.5 2-2.7s0.8-2.3 0.8-3.5c0-1.3-0.3-2.2-1-3-0.7-0.7-1.5-1.1-2.6-1.1-1.6 0-2.9 0.7-3.9 2.2-1 1.7-1.5 3.3-1.5 5.1z"/>
		<path d="m340-670.2l3.4-16h4.3c1.2 0 2 0 2.3 0.1 0.7 0.1 1.3 0.2 1.8 0.4s1 0.5 1.4 0.9 0.8 0.8 1.1 1.3 0.5 1.1 0.7 1.8 0.2 1.4 0.2 2.2c0 1.7-0.3 3.2-1 4.6-0.7 1.3-1.5 2.4-2.5 3.2-0.8 0.6-1.7 1.1-3 1.3-0.7 0.2-1.7 0.2-3.1 0.2h-5.6zm3.8-2.6h1.7c1.2 0 2.1-0.1 2.6-0.2s1-0.4 1.5-0.8c0.6-0.6 1.2-1.4 1.6-2.3 0.4-1 0.7-2.1 0.7-3.5 0-1.1-0.2-2-0.5-2.6-0.4-0.6-0.8-1-1.4-1.1-0.4-0.1-1-0.2-2-0.2h-1.9l-2.3 10.7z"/>
		<path d="m355.2-670.2l3.4-16h11.8l-0.6 2.7h-8.5l-0.8 3.6h8.3l-0.6 2.7h-8.3l-1 4.3h9.3l-0.6 2.7h-12.4z"/>
		<path d="m384.1-673.6h-6.3l-1.9 3.5h-3.4l9.1-15.9h3.6l2.5 16h-3.1l-0.5-3.6zm-0.4-2.7l-0.9-6.4-3.9 6.4h4.8z"/>
		<path d="m388.9-670.1l3.4-16h3.3l-2.8 13.3h8.1l-0.6 2.7h-11.4z"/>
		<path d="m412-673.5h-6.3l-1.9 3.5h-3.4l9.1-15.9h3.6l2.5 16h-3.1l-0.5-3.6zm-0.4-2.7l-0.9-6.4-3.9 6.4h4.8z"/>
		<path d="m420.1-670h-3.3l3.4-16h7.1c1.2 0 2.2 0.1 2.8 0.4 0.7 0.3 1.2 0.7 1.6 1.4s0.6 1.5 0.6 2.4c0 1.4-0.4 2.5-1.2 3.4s-2 1.4-3.7 1.6c0.4 0.4 0.8 0.9 1.2 1.5 0.7 1.3 1.5 3 2.4 5.3h-3.5c-0.3-0.9-0.8-2.3-1.7-4.2-0.4-1-0.9-1.7-1.4-2.1-0.3-0.2-0.9-0.3-1.6-0.3h-1.3l-1.4 6.6zm1.9-9h1.7c1.8 0 2.9-0.1 3.5-0.3s1-0.5 1.4-1 0.5-0.9 0.5-1.4c0-0.6-0.2-1-0.7-1.3-0.3-0.2-0.9-0.3-1.9-0.3h-3.6l-0.9 4.3z"/>
		<path d="m441.2-669.9h-3.1l-0.5-13.3-2.6 13.3h-3l3.4-16h4.7l0.5 11.2 5.5-11.2h4.7l-3.4 16h-3l3.2-13.2-6.4 13.2z"/>
		<path d="m460.1-673.4h-6.3l-1.9 3.5h-3.4l9.1-15.9h3.6l2.5 16h-3.1l-0.5-3.6zm-0.4-2.6l-0.9-6.4-3.9 6.4h4.8z"/>
		<path d="m465.4-675l3.1-0.2c0 1 0.2 1.7 0.5 2 0.5 0.6 1.4 0.9 2.7 0.9 1.1 0 1.9-0.2 2.3-0.6 0.5-0.4 0.7-0.8 0.7-1.4 0-0.5-0.2-0.9-0.6-1.2-0.3-0.2-1-0.6-2.3-1.2-1.2-0.5-2.1-1-2.7-1.4s-1-0.8-1.3-1.4c-0.3-0.6-0.5-1.2-0.5-2 0-1.3 0.5-2.5 1.5-3.3 1-0.9 2.4-1.3 4.2-1.3 1.9 0 3.3 0.4 4.3 1.3s1.6 2.1 1.7 3.5l-3.1 0.1c-0.1-0.8-0.4-1.3-0.8-1.8-0.5-0.4-1.2-0.6-2.1-0.6s-1.6 0.2-1.9 0.5c-0.4 0.3-0.6 0.7-0.6 1.2s0.2 0.8 0.5 1.1c0.4 0.3 1.1 0.7 2.4 1.3 1.8 0.8 3 1.4 3.5 1.9 0.7 0.7 1.1 1.7 1.1 2.8 0 1.4-0.6 2.6-1.7 3.6s-2.7 1.5-4.7 1.5c-1.4 0-2.6-0.2-3.6-0.7s-1.7-1.1-2.1-1.9c-0.3-0.7-0.5-1.6-0.5-2.7z"/>
		<path d="m491.8-669.8h-3.3l1.3-6.2-4.4-9.8h3.5l2 4.5c0.5 1.1 0.8 1.9 0.9 2.3 0.3-0.5 0.6-1 0.9-1.5l1.5-2.1 2.3-3.2h3.8l-7.3 10-1.2 6z"/>
		<path d="m510.6-669.7h-3.5l-2.8-16h3.3l2 12.1 6.6-12.1h3.3l-8.9 16z"/>
		<path d="m516.5-669.7l3.4-16h3.3l-3.4 16h-3.3z"/>
		<path d="m522-669.7l3.4-16h4.3c1.2 0 2 0 2.3 0.1 0.7 0.1 1.2 0.2 1.8 0.4 0.5 0.2 1 0.5 1.4 0.9s0.8 0.8 1.1 1.3 0.5 1.1 0.7 1.8 0.2 1.4 0.2 2.2c0 1.7-0.3 3.2-1 4.6-0.7 1.3-1.5 2.4-2.5 3.2-0.8 0.6-1.7 1.1-3 1.3-0.7 0.2-1.7 0.2-3.1 0.2h-5.6zm3.8-2.5h1.7c1.2 0 2.1-0.1 2.6-0.2s1-0.4 1.5-0.8c0.6-0.6 1.2-1.4 1.6-2.3 0.4-1 0.7-2.1 0.7-3.5 0-1.1-0.2-2-0.5-2.6-0.4-0.6-0.8-1-1.4-1.1-0.4-0.1-1-0.2-2-0.2h-1.9l-2.3 10.7z"/>
		<path d="m537.1-669.6l3.4-16h11.8l-0.6 2.7h-8.5l-0.8 3.6h8.3l-0.6 2.7h-8.3l-1 4.3h9.3l-0.6 2.7h-12.4z"/>
		<path d="m552.2-675.8c0-0.9 0.1-1.9 0.4-3 0.4-1.4 0.9-2.6 1.7-3.6s1.7-1.8 2.9-2.4 2.5-0.9 3.9-0.9c2 0 3.6 0.6 4.8 1.9 1.2 1.2 1.8 2.9 1.8 4.9 0 1.7-0.4 3.3-1.2 4.9s-1.9 2.8-3.2 3.6c-1.4 0.8-2.9 1.3-4.6 1.3-1.5 0-2.7-0.3-3.7-1s-1.7-1.5-2.1-2.5c-0.5-1.2-0.7-2.2-0.7-3.2zm3.2-0.1c0 1.1 0.3 2 1 2.8 0.7 0.7 1.5 1.1 2.6 1.1 0.9 0 1.7-0.3 2.6-0.9 0.8-0.6 1.5-1.5 2-2.7s0.8-2.3 0.8-3.5c0-1.3-0.3-2.2-1-3-0.7-0.7-1.5-1.1-2.6-1.1-1.6 0-2.9 0.7-3.9 2.2-1 1.7-1.5 3.3-1.5 5.1z"/>
	</g>
	<g fill="#29337F">
		<path d="m237.2-1007.1l-0.2-55h12.5c4.7 0 7.8 0.2 9.2 0.8 2.2 0.8 4.1 2.6 5.6 5.4s2.3 6.3 2.3 10.7c0 3.4-0.4 6.2-1.3 8.5-0.8 2.3-1.9 4.1-3.2 5.4s-2.7 2.2-4 2.6c-1.9 0.5-4.5 0.8-8.1 0.8h-5.1l0.1 20.8h-7.8zm7.6-45.7l0.1 15.6h4.3c3.1 0 5.1-0.3 6.1-0.9s1.8-1.5 2.4-2.7 0.9-2.7 0.9-4.3c0-2-0.4-3.7-1.3-5-0.8-1.3-1.9-2.1-3.1-2.4-0.9-0.2-2.8-0.4-5.6-0.4l-3.8 0.1z"/>
		<path d="m273-1007.2l-0.2-55 16.3-0.1c4.1 0 7.1 0.5 9 1.5s3.4 2.7 4.5 5.3c1.1 2.5 1.7 5.4 1.7 8.7 0 4.1-0.8 7.5-2.5 10.2s-4.2 4.4-7.6 5.1c1.7 1.4 3.1 2.9 4.2 4.6s2.6 4.6 4.5 8.9l4.7 10.7h-9.3l-5.7-12c-2-4.3-3.4-7-4.1-8.1s-1.5-1.9-2.3-2.3-2.1-0.6-3.9-0.6h-1.6l0.1 23-7.8 0.1zm7.7-31.8h5.7c3.7 0 6.1-0.2 7-0.7s1.6-1.2 2.2-2.3c0.5-1.1 0.8-2.5 0.8-4.1 0-1.9-0.4-3.3-1.1-4.5-0.7-1.1-1.7-1.9-2.9-2.1-0.6-0.1-2.5-0.2-5.7-0.2h-6.1l0.1 13.9z"/>
		<path d="m310.2-1034.5c0-5.6 0.6-10.3 1.7-14.1 0.9-2.8 2.1-5.3 3.6-7.6 1.5-2.2 3.2-3.9 5-5 2.4-1.5 5.2-2.2 8.3-2.2 5.7 0 10.2 2.5 13.6 7.5s5.1 12 5.2 21c0 8.9-1.6 15.8-5 20.9-3.4 5-7.9 7.6-13.5 7.6-5.7 0-10.3-2.5-13.7-7.4-3.5-5.1-5.2-11.9-5.2-20.7zm8-0.4c0 6.2 1 11 3.1 14.2s4.6 4.8 7.7 4.8c3.1 0 5.6-1.6 7.6-4.8s3-8 2.9-14.4c0-6.3-1-11-2.9-14.1s-4.5-4.6-7.7-4.6-5.8 1.6-7.7 4.7c-2.1 3.1-3.1 7.9-3 14.2z"/>
		<path d="m362.3-1007.5l-0.2-45.7h-11.4v-9.3l30.6-0.1v9.3h-11.4l0.2 45.7-7.8 0.1z"/>
		<path d="m386.5-1007.6l-0.2-55 28.5-0.1v9.3l-20.8 0.1v12.2l19.3-0.1v9.3l-19.3 0.1 0.1 15 21.5-0.1v9.3h-29.1z"/>
		<path d="m440.1-1028v-9.3l16.7-0.1 0.1 21.9c-1.6 2.3-4 4.3-7.1 6s-6.2 2.6-9.4 2.6c-4 0-7.5-1.2-10.5-3.6s-5.3-5.9-6.8-10.3c-1.5-4.5-2.3-9.4-2.3-14.7 0-5.7 0.8-10.8 2.5-15.3s4.1-7.9 7.3-10.3c2.5-1.8 5.5-2.8 9.2-2.8 4.8 0 8.5 1.4 11.2 4.3s4.4 6.8 5.2 11.9l-7.7 2.1c-0.6-2.7-1.6-4.8-3.1-6.4s-3.4-2.3-5.6-2.3c-3.4 0-6.1 1.6-8.1 4.6-2 3.1-3 7.7-3 13.7 0 6.5 1.1 11.4 3.1 14.7s4.7 4.9 8 4.9c1.6 0 3.3-0.5 4.9-1.4s3-2 4.2-3.3v-7l-8.8 0.1z"/>
		<path d="m463.9-1007.9l-0.2-55h7.8l0.2 55h-7.8z"/>
		<path d="m478.8-1063h14.2c3.2 0 5.6 0.3 7.3 1 2.3 0.9 4.2 2.6 5.8 5s2.9 5.4 3.7 8.9c0.9 3.5 1.3 7.8 1.3 13 0 4.5-0.4 8.4-1.1 11.7-0.9 4-2.3 7.3-4.1 9.7-1.3 1.9-3.2 3.4-5.4 4.4-1.7 0.8-4 1.2-6.9 1.2l-14.6 0.1-0.2-55zm7.8 9.3l0.1 36.5h5.8c2.2 0 3.7-0.2 4.7-0.5 1.3-0.5 2.3-1.2 3.1-2.3s1.5-2.9 2-5.3c0.5-2.5 0.8-5.8 0.8-10.1s-0.3-7.5-0.8-9.8-1.3-4.1-2.2-5.3c-0.9-1.3-2.2-2.1-3.6-2.6-1.1-0.3-3.2-0.5-6.4-0.5l-3.5-0.1z"/>
		<path d="m516.2-1035.2c0-5.6 0.6-10.3 1.7-14.1 0.9-2.8 2.1-5.3 3.6-7.6 1.5-2.2 3.2-3.9 5-5 2.4-1.5 5.2-2.2 8.3-2.2 5.7 0 10.2 2.5 13.6 7.5s5.1 12 5.2 21c0 8.9-1.6 15.8-5 20.9-3.4 5-7.9 7.6-13.5 7.6-5.7 0-10.3-2.5-13.7-7.4-3.5-5.1-5.2-12-5.2-20.7zm8-0.4c0 6.2 1 11 3.1 14.2 2 3.2 4.6 4.8 7.7 4.8s5.6-1.6 7.6-4.8 3-8 2.9-14.4c0-6.3-1-11-2.9-14.1s-4.5-4.6-7.7-4.6-5.8 1.6-7.7 4.7c-2.1 3.1-3 7.8-3 14.2z"/>
	</g>
	<polygon points="227.8 776.6 0 548.1 0 225.9 227.8 2.6 549.9 2.6 774 225.9 774 548.1 549.9 776.6" fill="#F8E300"/>
	<g fill="#006BAD">
			<rect transform="matrix(-1 .0034901 -.0034901 -1 988.54 107.58)" height="35.8" width="35.8" y="36.7" x="476.3"/>
			<rect transform="matrix(-1 .0034901 -.0034901 -1 916.54 36.332)" height="35.8" width="35.8" y="1.1" x="440.3"/>
			<rect transform="matrix(-1 .0034901 -.0034901 -1 845.29 108.33)" height="35.8" width="35.8" y="37" x="404.6"/>
			<rect transform="matrix(-1 .0034901 -.0034901 -1 773.29 37.082)" height="35.8" width="35.8" y="1.3" x="368.7"/>
			<rect transform="matrix(-1 .0034901 -.0034901 -1 702.04 109.08)" height="35.8" width="35.8" y="37.2" x="333"/>
			<rect transform="matrix(-1 .0034901 -.0034901 -1 630.04 37.832)" height="35.8" width="35.8" y="1.6" x="297.1"/>
			<rect transform="matrix(-1 .0034901 -.0034901 -1 558.79 109.83)" height="35.8" width="35.8" y="37.5" x="261.4"/>
	</g>
	<g fill="#006BAD">
			<rect transform="matrix(-.7096 -.7046 .7046 -.7096 1036.1 882.31)" height="35.8" width="35.8" y="209.7" x="682"/>
			<rect transform="matrix(-.7096 -.7046 .7046 -.7096 1071.5 795.6)" height="35.8" width="35.8" y="159.1" x="681.8"/>
			<rect transform="matrix(-.7096 -.7046 .7046 -.7096 984.78 760.21)" height="35.8" width="35.8" y="159.3" x="631.1"/>
			<rect transform="matrix(-.7096 -.7046 .7046 -.7096 1020.2 673.5)" height="35.8" width="35.8" y="108.6" x="631"/>
			<rect transform="matrix(-.7096 -.7046 .7046 -.7096 933.45 638.12)" height="35.8" width="35.8" y="108.8" x="580.3"/>
			<rect transform="matrix(-.7096 -.7046 .7046 -.7096 968.84 551.41)" height="35.8" width="35.8" y="58.1" x="580.1"/>
			<rect transform="matrix(-.7096 -.7046 .7046 -.7096 882.13 516.02)" height="35.8" width="35.8" y="58.3" x="529.5"/>
	</g>
	<g fill="#006BAD">
			<rect transform="matrix(-0.00349 -1 1 -0.00349 233.71 1213.5)" height="35.8" width="35.8" y="472.4" x="703.6"/>
			<rect transform="matrix(-0.00349 -1 1 -0.00349 305.46 1213.1)" height="35.8" width="35.8" y="436.4" x="739.3"/>
			<rect transform="matrix(-0.00349 -1 1 -0.00349 305.08 1141.3)" height="35.8" width="35.8" y="400.8" x="703.3"/>
			<rect transform="matrix(-0.00349 -1 1 -0.00349 376.83 1141)" height="35.8" width="35.8" y="364.8" x="739"/>
			<rect transform="matrix(-0.00349 -1 1 -0.00349 376.46 1069.2)" height="35.8" width="35.8" y="329.1" x="703.1"/>
			<rect transform="matrix(-0.00349 -1 1 -0.00349 448.21 1068.8)" height="35.8" width="35.8" y="293.2" x="738.8"/>
			<rect transform="matrix(-0.00349 -1 1 -0.00349 447.83 997.09)" height="35.8" width="35.8" y="257.5" x="702.8"/>
	</g>
	<g fill="#006BAD">
			<rect transform="matrix(.7046 -.7096 .7096 .7046 -334.2 596.1)" height="35.8" width="35.8" y="681.6" x="531"/>
			<rect transform="matrix(.7046 -.7096 .7096 .7046 -319.11 631.99)" height="35.8" width="35.8" y="681.4" x="581.7"/>
			<rect transform="matrix(.7046 -.7096 .7096 .7046 -283.23 616.9)" height="35.8" width="35.8" y="630.7" x="581.5"/>
			<rect transform="matrix(.7046 -.7096 .7096 .7046 -268.14 652.79)" height="35.8" width="35.8" y="630.6" x="632.1"/>
			<rect transform="matrix(.7046 -.7096 .7096 .7046 -232.25 637.7)" height="35.8" width="35.8" y="579.9" x="632"/>
			<rect transform="matrix(.7046 -.7096 .7096 .7046 -217.17 673.59)" height="35.8" width="35.8" y="579.7" x="682.6"/>
			<rect transform="matrix(.7046 -.7096 .7096 .7046 -181.28 658.5)" height="35.8" width="35.8" y="529.1" x="682.4"/>
	</g>
	<g fill="#006BAD">
			<rect transform="matrix(1 -0.00349 0.00349 1 -2.5224 .9977)" height="35.8" width="35.8" y="705.3" x="266.7"/>
			<rect transform="matrix(1 -0.00349 0.00349 1 -2.6468 1.1234)" height="35.8" width="35.8" y="741" x="302.6"/>
			<rect transform="matrix(1 -0.00349 0.00349 1 -2.5211 1.2477)" height="35.8" width="35.8" y="705.1" x="338.3"/>
			<rect transform="matrix(1 -0.00349 0.00349 1 -2.6455 1.3733)" height="35.8" width="35.8" y="740.8" x="374.3"/>
			<rect transform="matrix(1 -0.00349 0.00349 1 -2.5198 1.4977)" height="35.8" width="35.8" y="704.8" x="410"/>
			<rect transform="matrix(1 -0.00349 0.00349 1 -2.6441 1.6233)" height="35.8" width="35.8" y="740.5" x="445.9"/>
			<rect transform="matrix(1 -0.00349 0.00349 1 -2.5185 1.7477)" height="35.8" width="35.8" y="704.6" x="481.6"/>
	</g>
	<g fill="#006BAD">
			<rect transform="matrix(.7096 .7046 -.7046 .7096 408.12 105.98)" height="35.8" width="35.8" y="530.2" x="57.6"/>
			<rect transform="matrix(.7096 .7046 -.7046 .7096 443.86 120.57)" height="35.8" width="35.8" y="580.8" x="57.8"/>
			<rect transform="matrix(.7096 .7046 -.7046 .7096 458.45 84.827)" height="35.8" width="35.8" y="580.6" x="108.4"/>
			<rect transform="matrix(.7096 .7046 -.7046 .7096 494.18 99.412)" height="35.8" width="35.8" y="631.3" x="108.6"/>
			<rect transform="matrix(.7096 .7046 -.7046 .7096 508.77 63.672)" height="35.8" width="35.8" y="631.1" x="159.2"/>
			<rect transform="matrix(.7096 .7046 -.7046 .7096 544.51 78.257)" height="35.8" width="35.8" y="681.8" x="159.4"/>
			<rect transform="matrix(.7096 .7046 -.7046 .7096 559.09 42.518)" height="35.8" width="35.8" y="681.6" x="210.1"/>
	</g>
	<g fill="#006BAD">
			<rect transform="matrix(0.00349 1 -1 0.00349 334.56 225.46)" height="35.8" width="35.8" y="262.7" x="36.3"/>
			<rect transform="matrix(0.00349 1 -1 0.00349 334.93 296.96)" height="35.8" width="35.8" y="298.6" x=".6"/>
			<rect transform="matrix(0.00349 1 -1 0.00349 406.44 296.58)" height="35.8" width="35.8" y="334.3" x="36.5"/>
			<rect transform="matrix(0.00349 1 -1 0.00349 406.81 368.08)" height="35.8" width="35.8" y="370.3" x=".8"/>
			<rect transform="matrix(0.00349 1 -1 0.00349 478.31 367.71)" height="35.8" width="35.8" y="405.9" x="36.8"/>
			<rect transform="matrix(0.00349 1 -1 0.00349 478.68 439.21)" height="35.8" width="35.8" y="441.9" x="1.1"/>
			<rect transform="matrix(0.00349 1 -1 0.00349 550.19 438.84)" height="35.8" width="35.8" y="477.6" x="37"/>
	</g>
	<g fill="#006BAD">
			<rect transform="matrix(-.711 .7032 -.7032 -.711 444.57 -30.595)" height="35.8" width="35.8" y="58.2" x="210.7"/>
			<rect transform="matrix(-.711 .7032 -.7032 -.711 357.72 4.5434)" height="35.8" width="35.8" y="57.9" x="160"/>
			<rect transform="matrix(-.711 .7032 -.7032 -.711 392.85 91.396)" height="35.8" width="35.8" y="108.5" x="159.7"/>
			<rect transform="matrix(-.711 .7032 -.7032 -.711 306 126.53)" height="35.8" width="35.8" y="108.2" x="109.1"/>
			<rect transform="matrix(-.711 .7032 -.7032 -.711 341.14 213.39)" height="35.8" width="35.8" y="158.9" x="108.8"/>
			<rect transform="matrix(-.711 .7032 -.7032 -.711 254.29 248.52)" height="35.8" width="35.8" y="158.6" x="58.2"/>
			<rect transform="matrix(-.711 .7032 -.7032 -.711 289.42 335.38)" height="35.8" width="35.8" y="209.3" x="57.9"/>
	</g>
	<polygon points="243.4 741.6 228 725.7 202.7 751.2 228.1 776.6 266.6 776.4 266.8 741.6" fill="#006BAD"/>
	<polygon points="534 739.5 513.2 739.7 513.6 775.8 549.7 776 574.8 750.7 548.6 724.8" fill="#006BAD"/>
	<polygon points="737.9 533.6 723.4 548.4 749.2 573.7 774.8 548.3 774.7 512.7 737.9 512.8" fill="#006BAD"/>
	<polygon points="738.4 241.6 738.6 262.4 774.7 262 774.9 225.9 749.9 201.1 723.9 227.2" fill="#006BAD"/>
	<polygon points="534 36 548.9 51.6 574.1 25.7 548.7 0 508.8 0.1 508.9 36.1" fill="#006BAD"/>
	<polygon points="243.5 38.2 264.2 38 263.9 1.9 227.8 1.8 203.1 26.7 229.2 52.6" fill="#006BAD"/>
	<polygon points="37 241.4 48.9 226.5 24.8 201.3 0.5 225.9 1.1 267.7 37.1 267.6" fill="#006BAD"/>
	<polygon points="37.2 532.9 36.9 512.2 0.9 512.5 0.8 548.5 25.6 573.2 51.6 547.1" fill="#006BAD"/>
	<polygon points="468 514.6 290 514.6 290 433 301.9 428.3 316.8 438.1 317.2 459.1 331.1 443.7 330.8 460 340.8 445 341.8 459.1 353.7 444.8 354 459.6 359 459.6 359 478.6 375 478.6 375 404.2 381.8 391.6 385 391.6 385 366.6 387.9 366.6 387.7 391.5 391.2 391.9 394.3 404.6 399.2 404.6 409.6 395.5 424 403.1 424 479.6 437 479.6 437 420.5 440.6 424.6 444.4 424.6 445 410.8 452.1 407.6 459.9 417.5 465.6 411 468 419.2" fill="#29337F"/>
	<circle cx="386.5" cy="367.9" stroke="#29337F" r="15.9" stroke-miterlimit="10" fill="none"/>
	<circle cx="387.3" cy="368.7" stroke="#29337F" r="29.6" stroke-miterlimit="10" fill="none"/>
	<circle cx="387.6" cy="368.6" stroke="#29337F" r="41.6" stroke-miterlimit="10" fill="none"/>
	<circle cx="387.2" cy="368.3" stroke="#29337F" r="52" stroke-miterlimit="10" fill="none"/>
	<g stroke="#29337F" stroke-miterlimit="10" fill="#29337F">
		<path d="m208.9 574.4h-6.7l5.7-27h-9.5l1.1-5.4 25.6 0.1-1.1 5.4h-9.4l-5.7 26.9z"/>
		<path d="m224.6 574.5l6.9-32.4 24.1 0.1-1.1 5.4-17.4-0.1-1.6 7.4 16.8 0.1-1.1 5.4-16.8-0.1-2.1 8.8 18.9 0.1-1.2 5.4-25.4-0.1z"/>
		<path d="m257.2 574.6l6.9-32.4h6.7l-5.7 27 16.5 0.1-1.1 5.4-23.3-0.1z"/>
		<path d="m286.8 574.7l6.9-32.4 24.1 0.1-1.1 5.4-17.4-0.1-1.6 7.4 16.8 0.1-1.1 5.4-16.8-0.1-2.1 8.8 18.9 0.1-1.2 5.4-25.4-0.1z"/>
		<path d="m320.2 564.2l6.4-0.3c0.1 2 0.4 3.4 1 4.1 1 1.2 2.8 1.7 5.4 1.7 2.2 0 3.8-0.4 4.7-1.2 1-0.8 1.5-1.7 1.5-2.8 0-1-0.4-1.8-1.2-2.4-0.6-0.5-2.1-1.3-4.6-2.4s-4.3-2-5.5-2.8c-1.2-0.7-2.1-1.7-2.7-2.9-0.7-1.2-1-2.5-1-4.1 0-2.7 1-5 3-6.8s4.8-2.7 8.6-2.7 6.8 0.9 8.8 2.7 3.2 4.2 3.4 7.1l-6.4 0.3c-0.2-1.5-0.7-2.7-1.7-3.6-1-0.8-2.4-1.2-4.2-1.3-1.8 0-3.2 0.3-4 1-0.8 0.6-1.2 1.5-1.2 2.5 0 0.9 0.4 1.7 1.1 2.3s2.3 1.5 4.8 2.6c3.7 1.6 6.1 2.9 7.1 3.9 1.5 1.5 2.3 3.4 2.3 5.7 0 2.9-1.1 5.3-3.4 7.3s-5.4 3-9.5 3c-2.8 0-5.2-0.5-7.2-1.4s-3.5-2.2-4.3-3.9c-0.8-1.5-1.2-3.4-1.2-5.6z"/>
		<path d="m351.5 574.9l6.9-32.4 24.1 0.1-1.1 5.4-17.4-0.1-1.6 7.4 16.8 0.1-1.1 5.4-16.8-0.1-2.1 8.8 18.9 0.1-1.2 5.4-25.4-0.1z"/>
		<path d="m409.9 575h-6.2l-8.7-21.8-4.6 21.8h-6.2l6.9-32.4h6.2l8.7 21.7 4.6-21.7h6.2l-6.9 32.4z"/>
		<path d="m432.9 575.1h-6.7l5.7-27h-9.5l1.1-5.4 25.6 0.1-1.1 5.4h-9.4l-5.7 26.9z"/>
		<path d="m448.3 575.1l6.9-32.4h6.7l-6.9 32.4h-6.7z"/>
		<path d="m489.3 575.3h-6.2l-8.7-21.8-4.6 21.8h-6.2l6.9-32.4h6.2l8.7 21.7 4.6-21.7h6.2l-6.9 32.4z"/>
		<path d="m498.2 575.3l6.9-32.4 24.1 0.1-1.1 5.4-17.4-0.1-1.6 7.4 16.8 0.1-1.1 5.4-16.8-0.1-2.1 8.8 18.9 0.1-1.2 5.4-25.4-0.1z"/>
		<path d="m530.7 575.4l6.9-32.4h6.7l-5.7 27 16.5 0.1-1.1 5.4-23.3-0.1z"/>
	</g>
	<circle r="5.5" cy="546.5" stroke="#666" cx="554.9" stroke-miterlimit="10" stroke-width=".1" fill="none"/>
		<path d="m552.3 550.1v-6.6h2.9c0.6 0 1 0.1 1.3 0.2s0.5 0.3 0.7 0.6 0.3 0.6 0.3 1c0 0.5-0.1 0.9-0.4 1.2s-0.8 0.5-1.4 0.6c0.2 0.1 0.4 0.2 0.5 0.3 0.3 0.2 0.5 0.5 0.7 0.9l1.1 1.8h-1.1l-0.9-1.4c-0.3-0.4-0.5-0.7-0.6-0.9-0.2-0.2-0.3-0.4-0.4-0.4-0.1-0.1-0.3-0.1-0.4-0.2h-0.5-1v2.9h-0.8zm0.9-3.6h1.9c0.4 0 0.7 0 0.9-0.1s0.4-0.2 0.5-0.4 0.2-0.4 0.2-0.6c0-0.3-0.1-0.6-0.3-0.8s-0.6-0.3-1.1-0.3h-2.1v2.2z" fill="#666"/>
	<g fill="#29337F">
		<path d="m206.8 601.4h-3.1l-0.5-13.3-2.6 13.3h-3l3.4-16h4.7l0.5 11.2 5.5-11.2h4.7l-3.4 16h-3l3.2-13.2-6.4 13.2z"/>
		<path d="m216.3 595.2c0-0.9 0.1-1.9 0.4-3 0.4-1.4 0.9-2.6 1.7-3.6s1.7-1.8 2.9-2.4 2.5-0.9 3.9-0.9c2 0 3.6 0.6 4.8 1.9 1.2 1.2 1.8 2.9 1.8 4.9 0 1.7-0.4 3.3-1.2 4.9s-1.9 2.8-3.2 3.6c-1.4 0.8-2.9 1.3-4.6 1.3-1.5 0-2.7-0.3-3.7-1s-1.7-1.5-2.1-2.5c-0.5-1.2-0.7-2.2-0.7-3.2zm3.3-0.1c0 1.1 0.3 2 1 2.8 0.7 0.7 1.5 1.1 2.6 1.1 0.9 0 1.7-0.3 2.6-0.9 0.8-0.6 1.5-1.5 2-2.7s0.8-2.3 0.8-3.5c0-1.3-0.3-2.2-1-3-0.7-0.7-1.5-1.1-2.6-1.1-1.6 0-2.9 0.7-3.9 2.2-1 1.7-1.5 3.3-1.5 5.1z"/>
		<path d="m244.5 601.5h-3.1l-4.3-10.7-2.3 10.7h-3.1l3.4-16h3.1l4.3 10.7 2.3-10.7h3l-3.3 16z"/>
		<path d="m246.8 601.5l3.4-16h3.3l-3.4 16h-3.3z"/>
		<path d="m259.2 601.6h-3.3l2.8-13.3h-4.7l0.6-2.7h12.6l-0.6 2.7h-4.6l-2.8 13.3z"/>
		<path d="m265.6 595.3c0-0.9 0.1-1.9 0.4-3 0.4-1.4 0.9-2.6 1.7-3.6s1.7-1.8 2.9-2.4 2.5-0.9 3.9-0.9c2 0 3.6 0.6 4.8 1.9 1.2 1.2 1.8 2.9 1.8 4.9 0 1.7-0.4 3.3-1.2 4.9s-1.9 2.8-3.2 3.6c-1.4 0.8-2.9 1.3-4.6 1.3-1.5 0-2.7-0.3-3.7-1s-1.7-1.5-2.1-2.5c-0.5-1.2-0.7-2.2-0.7-3.2zm3.3 0c0 1.1 0.3 2 1 2.8 0.7 0.7 1.5 1.1 2.6 1.1 0.9 0 1.7-0.3 2.6-0.9 0.8-0.6 1.5-1.5 2-2.7s0.8-2.3 0.8-3.5c0-1.3-0.3-2.2-1-3-0.7-0.7-1.5-1.1-2.6-1.1-1.6 0-2.9 0.7-3.9 2.2-1 1.6-1.5 3.3-1.5 5.1z"/>
		<path d="m284.4 601.6h-3.3l3.4-16h7.1c1.2 0 2.2 0.1 2.8 0.4 0.7 0.3 1.2 0.7 1.6 1.4s0.6 1.5 0.6 2.4c0 1.4-0.4 2.5-1.2 3.4s-2 1.4-3.7 1.6c0.4 0.4 0.8 0.9 1.2 1.5 0.7 1.3 1.5 3 2.4 5.3h-3.5c-0.3-0.9-0.8-2.3-1.7-4.2-0.4-1-0.9-1.7-1.4-2.1-0.3-0.2-0.9-0.3-1.6-0.3h-1.3l-1.4 6.6zm1.9-9h1.7c1.8 0 2.9-0.1 3.5-0.3s1-0.5 1.4-1c0.3-0.4 0.5-0.9 0.5-1.4 0-0.6-0.2-1-0.7-1.3-0.3-0.2-0.9-0.3-1.9-0.3h-3.6l-0.9 4.3z"/>
		<path d="m296.2 601.7l3.4-16h11.8l-0.6 2.7h-8.5l-0.8 3.6h8.3l-0.6 2.7h-8.3l-1 4.3h9.3l-0.6 2.7h-12.4z"/>
		<path d="m311.3 595.5c0-0.9 0.1-1.9 0.4-3 0.4-1.4 0.9-2.6 1.7-3.6s1.7-1.8 2.9-2.4 2.5-0.9 3.9-0.9c2 0 3.6 0.6 4.8 1.9 1.2 1.2 1.8 2.9 1.8 4.9 0 1.7-0.4 3.3-1.2 4.9s-1.9 2.8-3.2 3.6c-1.4 0.8-2.9 1.3-4.6 1.3-1.5 0-2.7-0.3-3.7-1s-1.7-1.5-2.1-2.5c-0.5-1.2-0.7-2.2-0.7-3.2zm3.2-0.1c0 1.1 0.3 2 1 2.8 0.7 0.7 1.5 1.1 2.6 1.1 0.9 0 1.7-0.3 2.6-0.9 0.8-0.6 1.5-1.5 2-2.7s0.8-2.3 0.8-3.5c0-1.3-0.3-2.2-1-3-0.7-0.7-1.5-1.1-2.6-1.1-1.6 0-2.9 0.7-3.9 2.2-1 1.7-1.5 3.3-1.5 5.1z"/>
		<path d="m332 601.8l3.4-16h4.3c1.2 0 2 0 2.3 0.1 0.7 0.1 1.3 0.2 1.8 0.4s1 0.5 1.4 0.9 0.8 0.8 1.1 1.3 0.5 1.1 0.7 1.8 0.2 1.4 0.2 2.2c0 1.7-0.3 3.2-1 4.6-0.7 1.3-1.5 2.4-2.5 3.2-0.8 0.6-1.7 1.1-3 1.3-0.7 0.2-1.7 0.2-3.1 0.2h-5.6zm3.8-2.6h1.7c1.2 0 2.1-0.1 2.6-0.2s1-0.4 1.5-0.8c0.6-0.6 1.2-1.4 1.6-2.3 0.4-1 0.7-2.1 0.7-3.5 0-1.1-0.2-2-0.5-2.6-0.4-0.6-0.8-1-1.4-1.1-0.4-0.1-1-0.2-2-0.2h-1.9l-2.3 10.7z"/>
		<path d="m347.2 601.8l3.4-16h11.8l-0.6 2.7h-8.5l-0.8 3.6h8.3l-0.6 2.7h-8.3l-1 4.3h9.3l-0.6 2.7h-12.4z"/>
		<path d="m376.1 598.4h-6.3l-1.9 3.5h-3.4l9.1-15.9h3.6l2.5 16h-3.1l-0.5-3.6zm-0.4-2.7l-0.9-6.4-3.9 6.4h4.8z"/>
		<path d="m380.9 601.9l3.4-16h3.3l-2.8 13.3h8.1l-0.6 2.7h-11.4z"/>
		<path d="m404 598.5h-6.3l-1.9 3.5h-3.4l9.1-15.9h3.6l2.5 16h-3.1l-0.5-3.6zm-0.4-2.7l-0.9-6.4-3.9 6.4h4.8z"/>
		<path d="m412.1 602h-3.3l3.4-16h7.1c1.2 0 2.2 0.1 2.8 0.4 0.7 0.3 1.2 0.7 1.6 1.4s0.6 1.5 0.6 2.4c0 1.4-0.4 2.5-1.2 3.4s-2 1.4-3.7 1.6c0.4 0.4 0.8 0.9 1.2 1.5 0.7 1.3 1.5 3 2.4 5.3h-3.5c-0.3-0.9-0.8-2.3-1.7-4.2-0.4-1-0.9-1.7-1.4-2.1-0.3-0.2-0.9-0.3-1.6-0.3h-1.3l-1.4 6.6zm1.9-9h1.7c1.8 0 2.9-0.1 3.5-0.3s1-0.5 1.4-1 0.5-0.9 0.5-1.4c0-0.6-0.2-1-0.7-1.3-0.3-0.2-0.9-0.3-1.9-0.3h-3.6l-0.9 4.3z"/>
		<path d="m433.2 602.1h-3.1l-0.5-13.3-2.6 13.3h-3l3.4-16h4.7l0.5 11.2 5.5-11.2h4.7l-3.4 16h-3l3.2-13.2-6.4 13.2z"/>
		<path d="m452.1 598.6h-6.3l-1.9 3.5h-3.4l9.1-15.9h3.6l2.5 16h-3.1l-0.5-3.6zm-0.4-2.6l-0.9-6.4-3.9 6.4h4.8z"/>
		<path d="m457.4 597l3.1-0.2c0 1 0.2 1.7 0.5 2 0.5 0.6 1.4 0.9 2.7 0.9 1.1 0 1.9-0.2 2.3-0.6 0.5-0.4 0.7-0.8 0.7-1.4 0-0.5-0.2-0.9-0.6-1.2-0.3-0.2-1-0.6-2.3-1.2-1.2-0.5-2.1-1-2.7-1.4s-1-0.8-1.3-1.4c-0.3-0.6-0.5-1.2-0.5-2 0-1.3 0.5-2.5 1.5-3.3 1-0.9 2.4-1.3 4.2-1.3 1.9 0 3.3 0.4 4.3 1.3s1.6 2.1 1.7 3.5l-3.1 0.1c-0.1-0.8-0.4-1.3-0.8-1.8-0.5-0.4-1.2-0.6-2.1-0.6s-1.6 0.2-1.9 0.5c-0.4 0.3-0.6 0.7-0.6 1.2s0.2 0.8 0.5 1.1c0.4 0.3 1.1 0.7 2.4 1.3 1.8 0.8 3 1.4 3.5 1.9 0.7 0.7 1.1 1.7 1.1 2.8 0 1.4-0.6 2.6-1.7 3.6s-2.7 1.5-4.7 1.5c-1.4 0-2.6-0.2-3.6-0.7s-1.7-1.1-2.1-1.9c-0.3-0.7-0.5-1.6-0.5-2.7z"/>
		<path d="m483.8 602.2h-3.3l1.3-6.2-4.4-9.8h3.5l2 4.5c0.5 1.1 0.8 1.9 0.9 2.3 0.3-0.5 0.6-1 0.9-1.5l1.5-2.1 2.3-3.2h3.8l-7.3 10-1.2 6z"/>
		<path d="m502.6 602.3h-3.5l-2.8-16h3.3l2 12.1 6.6-12.1h3.3l-8.9 16z"/>
		<path d="m508.5 602.3l3.4-16h3.3l-3.4 16h-3.3z"/>
		<path d="m514 602.3l3.4-16h4.3c1.2 0 2 0 2.3 0.1 0.7 0.1 1.2 0.2 1.8 0.4 0.5 0.2 1 0.5 1.4 0.9s0.8 0.8 1.1 1.3 0.5 1.1 0.7 1.8 0.2 1.4 0.2 2.2c0 1.7-0.3 3.2-1 4.6-0.7 1.3-1.5 2.4-2.5 3.2-0.8 0.6-1.7 1.1-3 1.3-0.7 0.2-1.7 0.2-3.1 0.2h-5.6zm3.8-2.5h1.7c1.2 0 2.1-0.1 2.6-0.2s1-0.4 1.5-0.8c0.6-0.6 1.2-1.4 1.6-2.3 0.4-1 0.7-2.1 0.7-3.5 0-1.1-0.2-2-0.5-2.6-0.4-0.6-0.8-1-1.4-1.1-0.4-0.1-1-0.2-2-0.2h-1.9l-2.3 10.7z"/>
		<path d="m529.1 602.4l3.4-16h11.8l-0.6 2.7h-8.5l-0.8 3.6h8.3l-0.6 2.7h-8.3l-1 4.3h9.3l-0.6 2.7h-12.4z"/>
		<path d="m544.2 596.2c0-0.9 0.1-1.9 0.4-3 0.4-1.4 0.9-2.6 1.7-3.6s1.7-1.8 2.9-2.4 2.5-0.9 3.9-0.9c2 0 3.6 0.6 4.8 1.9 1.2 1.2 1.8 2.9 1.8 4.9 0 1.7-0.4 3.3-1.2 4.9s-1.9 2.8-3.2 3.6c-1.4 0.8-2.9 1.3-4.6 1.3-1.5 0-2.7-0.3-3.7-1s-1.7-1.5-2.1-2.5c-0.5-1.2-0.7-2.2-0.7-3.2zm3.2-0.1c0 1.1 0.3 2 1 2.8 0.7 0.7 1.5 1.1 2.6 1.1 0.9 0 1.7-0.3 2.6-0.9 0.8-0.6 1.5-1.5 2-2.7s0.8-2.3 0.8-3.5c0-1.3-0.3-2.2-1-3-0.7-0.7-1.5-1.1-2.6-1.1-1.6 0-2.9 0.7-3.9 2.2-1 1.7-1.5 3.3-1.5 5.1z"/>
	</g>
	<g fill="#29337F">
		<path d="m229.2 264.9l-0.2-55h12.5c4.7 0 7.8 0.2 9.2 0.8 2.2 0.8 4.1 2.6 5.6 5.4s2.3 6.3 2.3 10.7c0 3.4-0.4 6.2-1.3 8.5-0.8 2.3-1.9 4.1-3.2 5.4s-2.7 2.2-4 2.6c-1.9 0.5-4.5 0.8-8.1 0.8h-5.1l0.1 20.8h-7.8zm7.6-45.7l0.1 15.6h4.3c3.1 0 5.1-0.3 6.1-0.9s1.8-1.5 2.4-2.7 0.9-2.7 0.9-4.3c0-2-0.4-3.7-1.3-5-0.8-1.3-1.9-2.1-3.1-2.4-0.9-0.2-2.8-0.4-5.6-0.4l-3.8 0.1z"/>
		<path d="m265 264.8l-0.2-55 16.3-0.1c4.1 0 7.1 0.5 9 1.5s3.4 2.7 4.5 5.3c1.1 2.5 1.7 5.4 1.7 8.7 0 4.1-0.8 7.5-2.5 10.2s-4.2 4.4-7.6 5.1c1.7 1.4 3.1 2.9 4.2 4.6s2.6 4.6 4.5 8.9l4.7 10.7h-9.3l-5.7-12c-2-4.3-3.4-7-4.1-8.1s-1.5-1.9-2.3-2.3-2.1-0.6-3.9-0.6h-1.6l0.1 23-7.8 0.1zm7.7-31.8h5.7c3.7 0 6.1-0.2 7-0.7s1.6-1.2 2.2-2.3c0.5-1.1 0.8-2.5 0.8-4.1 0-1.9-0.4-3.3-1.1-4.5-0.7-1.1-1.7-1.9-2.9-2.1-0.6-0.1-2.5-0.2-5.7-0.2h-6.1l0.1 13.9z"/>
		<path d="m302.2 237.5c0-5.6 0.6-10.3 1.7-14.1 0.9-2.8 2.1-5.3 3.6-7.6 1.5-2.2 3.2-3.9 5-5 2.4-1.5 5.2-2.2 8.3-2.2 5.7 0 10.2 2.5 13.6 7.5s5.1 12 5.2 21c0 8.9-1.6 15.8-5 20.9-3.4 5-7.9 7.6-13.5 7.6-5.7 0-10.3-2.5-13.7-7.4-3.5-5.1-5.2-11.9-5.2-20.7zm8-0.4c0 6.2 1 11 3.1 14.2s4.6 4.8 7.7 4.8c3.1 0 5.6-1.6 7.6-4.8s3-8 2.9-14.4c0-6.3-1-11-2.9-14.1s-4.5-4.6-7.7-4.6-5.8 1.6-7.7 4.7c-2.1 3.1-3.1 7.9-3 14.2z"/>
		<path d="m354.3 264.5l-0.2-45.7h-11.4v-9.3l30.6-0.1v9.3h-11.4l0.2 45.7-7.8 0.1z"/>
		<path d="m378.5 264.4l-0.2-55 28.5-0.1v9.3l-20.8 0.1v12.2l19.3-0.1v9.3l-19.3 0.1 0.1 15 21.5-0.1v9.3h-29.1z"/>
		<path d="m432.1 244v-9.3l16.7-0.1 0.1 21.9c-1.6 2.3-4 4.3-7.1 6s-6.2 2.6-9.4 2.6c-4 0-7.5-1.2-10.5-3.6s-5.3-5.9-6.8-10.3c-1.5-4.5-2.3-9.4-2.3-14.7 0-5.7 0.8-10.8 2.5-15.3s4.1-7.9 7.3-10.3c2.5-1.8 5.5-2.8 9.2-2.8 4.8 0 8.5 1.4 11.2 4.3s4.4 6.8 5.2 11.9l-7.7 2.1c-0.6-2.7-1.6-4.8-3.1-6.4s-3.4-2.3-5.6-2.3c-3.4 0-6.1 1.6-8.1 4.6-2 3.1-3 7.7-3 13.7 0 6.5 1.1 11.4 3.1 14.7s4.7 4.9 8 4.9c1.6 0 3.3-0.5 4.9-1.4s3-2 4.2-3.3v-7l-8.8 0.1z"/>
		<path d="m455.9 264.1l-0.2-55h7.8l0.2 55h-7.8z"/>
		<path d="m470.8 209h14.2c3.2 0 5.6 0.3 7.3 1 2.3 0.9 4.2 2.6 5.8 5s2.9 5.4 3.7 8.9c0.9 3.5 1.3 7.8 1.3 13 0 4.5-0.4 8.4-1.1 11.7-0.9 4-2.3 7.3-4.1 9.7-1.3 1.9-3.2 3.4-5.4 4.4-1.7 0.8-4 1.2-6.9 1.2l-14.6 0.1-0.2-55zm7.8 9.3l0.1 36.5h5.8c2.2 0 3.7-0.2 4.7-0.5 1.3-0.5 2.3-1.2 3.1-2.3s1.5-2.9 2-5.3c0.5-2.5 0.8-5.8 0.8-10.1s-0.3-7.5-0.8-9.8-1.3-4.1-2.2-5.3c-0.9-1.3-2.2-2.1-3.6-2.6-1.1-0.3-3.2-0.5-6.4-0.5l-3.5-0.1z"/>
		<path d="m508.2 236.8c0-5.6 0.6-10.3 1.7-14.1 0.9-2.8 2.1-5.3 3.6-7.6 1.5-2.2 3.2-3.9 5-5 2.4-1.5 5.2-2.2 8.3-2.2 5.7 0 10.2 2.5 13.6 7.5s5.1 12 5.2 21c0 8.9-1.6 15.8-5 20.9-3.4 5-7.9 7.6-13.5 7.6-5.7 0-10.3-2.5-13.7-7.4-3.5-5.1-5.2-12-5.2-20.7zm8-0.4c0 6.2 1 11 3.1 14.2 2 3.2 4.6 4.8 7.7 4.8s5.6-1.6 7.6-4.8 3-8 2.9-14.4c0-6.3-1-11-2.9-14.1s-4.5-4.6-7.7-4.6-5.8 1.6-7.7 4.7c-2.1 3.1-3 7.8-3 14.2z"/>
	</g>
<image id="Placa_xA0_Imagen_2_" xlink:href="4B369BA6D97354A5.png" transform="matrix(7.4259 0 0 7.4259 1490 -1289.1)" height="108" width="108" overflow="visible">
</image>
</svg>
